<?xml version="1.0" encoding="utf-8"?>
<!-- Generator: Adobe Illustrator 15.0.0, SVG Export Plug-In . SVG Version: 6.00 Build 0)  -->
<!DOCTYPE svg PUBLIC "-//W3C//DTD SVG 1.1//EN" "http://www.w3.org/Graphics/SVG/1.1/DTD/svg11.dtd">
<svg version="1.1" id="Слой_1" xmlns="http://www.w3.org/2000/svg" xmlns:xlink="http://www.w3.org/1999/xlink" x="0px" y="0px"
	 width="300px" height="300px" viewBox="0 0 300 300" enable-background="new 0 0 300 300" xml:space="preserve">
<circle fill="none" stroke="#FDC54C" stroke-width="2" stroke-miterlimit="10" cx="150" cy="150" r="145.53"/>
<circle fill="#F24841" cx="62.182" cy="32.13" r="19.442"/>
<text transform="matrix(1 0 0 1 53.6641 42.5449)" font-family="'PTSans-Bold'" font-size="30.5856">1</text>
<g>
	<g>
		<path fill="#FDC54C" d="M77.391,113.267c0,18.847,15.334,34.18,34.18,34.18c18.849,0,34.182-15.333,34.182-34.18
			c0-18.846-15.334-34.18-34.182-34.18C92.726,79.087,77.391,94.421,77.391,113.267z M111.572,137.761
			c-13.505,0-24.493-10.987-24.493-24.494c0-4.643,1.324-8.973,3.574-12.677c5.499,5.588,13.078,7.808,20.719,9.432
			c9.604,2.04,19.844,3.054,21.941,14.364c0.006,0.03,0.015,0.052,0.021,0.08C129.259,132.349,121.042,137.761,111.572,137.761z
			 M135.688,109.111c-10.258-8.426-28.399-5.414-38.461-15.656c4.036-2.931,8.986-4.681,14.345-4.681
			C123.661,88.774,133.706,97.582,135.688,109.111z"/>
		<path fill="#FDC54C" d="M185.059,58.268c-10.974,0-19.904,8.927-19.904,19.898v2.089l-16.04,22.879l16.04-1.856v29.779
			c0,10.973,8.931,19.899,19.904,19.899h39.144c10.97,0,19.896-8.926,19.896-19.899V78.164c0-10.972-8.929-19.899-19.896-19.899
			h-39.144V58.268L185.059,58.268z M234.412,78.164v52.89c0,5.632-4.585,10.214-10.218,10.214h-39.136
			c-5.631,0-10.215-4.582-10.215-10.214V90.405l-5.412,0.626l5.412-7.721v-5.146c0-5.632,4.584-10.214,10.215-10.214h39.144
			C229.827,67.954,234.412,72.535,234.412,78.164z"/>
		<path fill="#FDC54C" d="M55.175,223.765h19.177h74.442h85.51c2.681,0,4.843-2.166,4.843-4.843c0-2.674-2.162-4.843-4.843-4.843
			h-68.348c1.048-2.034,1.642-4.283,1.642-6.646l-6.022-41.186c-0.245-8.829-8.584-15.946-18.803-15.946h-21.584l-9.237,9.533
			l-0.126-0.354l-0.271,0.769l-0.087,0.089l-10.352-10.036H80.373c-10.219,0-18.563,7.117-18.802,15.946l-5.974,40.478l-0.05,0.708
			c0,2.371,0.595,4.612,1.642,6.646h-2.014c-2.677,0-4.843,2.169-4.843,4.843C50.332,221.599,52.501,223.765,55.175,223.765z
			 M114.634,196.358l-2.81,1.828l-2.81-1.828l2.81-7.913L114.634,196.358z M65.243,207.722l5.956-40.379l0.051-0.706
			c0-3.604,4.176-6.649,9.122-6.649h16.816l10.753,10.43L97.337,200.31l14.487,9.444l14.488-9.444l-10.746-30.28l9.72-10.039h17.481
			c4.944,0,9.122,3.046,9.122,6.646l6.014,41.092c-0.221,3.476-4.307,6.357-9.112,6.357H74.352
			C69.544,214.079,65.462,211.2,65.243,207.722z"/>
		<path fill="#FDC54C" d="M191.743,93.057h-2.046c-0.357,0-0.647,0.292-0.647,0.646v4.838c0,0.354-0.289,0.645-0.644,0.645h-4.955
			c-0.356,0-0.651-0.29-0.651-0.645v-4.838c0-0.354-0.289-0.646-0.642-0.646h-2.051c-0.353,0-0.643,0.292-0.643,0.646v14.786
			c0,0.354,0.29,0.645,0.643,0.645h2.051c0.353,0,0.642-0.291,0.642-0.645v-5.884c0-0.354,0.295-0.646,0.651-0.646h4.955
			c0.354,0,0.644,0.291,0.644,0.646v5.884c0,0.354,0.29,0.645,0.647,0.645h2.046c0.356,0,0.647-0.291,0.647-0.645V93.703
			C192.391,93.349,192.1,93.057,191.743,93.057z"/>
		<path fill="#FDC54C" d="M205.165,99.244c-0.537-0.8-1.222-1.387-2.053-1.759c-0.831-0.371-1.758-0.558-2.797-0.558
			c-1.743,0-3.155,0.548-4.247,1.65c-1.093,1.097-1.64,2.676-1.64,4.736c0,1.892,0.449,3.331,1.347,4.317
			c0.241,0.264,0.689,0.626,0.994,0.823c1.085,0.721,2.302,1.079,3.663,1.079c1.917,0,3.405-0.578,4.472-1.735
			c0.479-0.512,0.815-1.02,1.001-1.519c0.121-0.336-0.137-0.626-0.497-0.626h-1.886c-0.353,0-0.748,0.209-0.92,0.438
			c-0.113,0.148-0.234,0.275-0.362,0.377c-0.441,0.365-1.02,0.546-1.725,0.546c-0.669,0-1.24-0.148-1.716-0.447
			c-0.632-0.388-1.021-1.01-1.174-1.87c-0.063-0.352,0.221-0.638,0.577-0.638h7.366c0.356,0,0.653-0.287,0.646-0.646
			c-0.007-0.716-0.039-1.288-0.102-1.713C205.971,100.771,205.655,99.953,205.165,99.244z M202.345,102.01h-4.063
			c-0.355,0-0.611-0.29-0.506-0.629c0.146-0.484,0.378-0.887,0.689-1.211c0.442-0.453,1.06-0.678,1.857-0.678
			c0.734,0,1.346,0.213,1.845,0.64c0.36,0.309,0.6,0.719,0.729,1.236C202.975,101.717,202.697,102.01,202.345,102.01z"/>
		<path fill="#FDC54C" d="M210.315,93.057h-1.817c-0.355,0-0.646,0.292-0.646,0.646v14.786c0,0.354,0.29,0.645,0.646,0.645h1.817
			c0.354,0,0.646-0.291,0.646-0.645V93.703C210.961,93.349,210.672,93.057,210.315,93.057z"/>
		<path fill="#FDC54C" d="M216.521,93.057h-1.817c-0.356,0-0.646,0.292-0.646,0.646v14.786c0,0.354,0.289,0.645,0.646,0.645h1.817
			c0.356,0,0.646-0.291,0.646-0.645V93.703C217.167,93.349,216.878,93.057,216.521,93.057z"/>
		<path fill="#FDC54C" d="M219.465,103.206c0,1.743,0.503,3.235,1.508,4.473c1.004,1.24,2.522,1.855,4.566,1.855
			s3.566-0.62,4.571-1.855c1.006-1.237,1.508-2.729,1.508-4.473c0-1.714-0.502-3.198-1.508-4.455
			c-1.003-1.256-2.522-1.886-4.565-1.886c-2.046,0-3.567,0.63-4.572,1.886C219.97,100.006,219.465,101.492,219.465,103.206z
			 M223.432,100.454c0.492-0.641,1.193-0.961,2.1-0.961c0.907,0,1.606,0.323,2.093,0.961c0.487,0.644,0.727,1.561,0.727,2.751
			c0,1.191-0.239,2.11-0.727,2.755c-0.49,0.646-1.186,0.969-2.093,0.969c-0.906,0-1.607-0.323-2.1-0.969
			c-0.491-0.644-0.737-1.566-0.737-2.755C222.694,102.019,222.94,101.098,223.432,100.454z"/>
	</g>
</g>
<text transform="matrix(1 0 0 1 97.2598 178.8564)"><tspan x="0" y="0" fill="#FFFFFF" font-family="'PTSans-Bold'" font-size="25">Вивчення </tspan><tspan x="-34.875" y="28" fill="#FFFFFF" font-family="'PTSans-Bold'" font-size="25">англійскої мови </tspan></text>
</svg>
