<?xml version="1.0" encoding="utf-8"?>
<!-- Generator: Adobe Illustrator 15.0.0, SVG Export Plug-In . SVG Version: 6.00 Build 0)  -->
<!DOCTYPE svg PUBLIC "-//W3C//DTD SVG 1.1//EN" "http://www.w3.org/Graphics/SVG/1.1/DTD/svg11.dtd">
<svg version="1.1" id="Слой_1" xmlns="http://www.w3.org/2000/svg" xmlns:xlink="http://www.w3.org/1999/xlink" x="0px" y="0px"
	 width="300px" height="300px" viewBox="0 0 300 300" enable-background="new 0 0 300 300" xml:space="preserve">
<polygon fill="#FFFFFF" stroke="#FDC54C" stroke-width="5" stroke-miterlimit="10" points="280.081,224.999 150.174,299 
	20.271,224.999 20.271,77 150.174,3 280.081,77 "/>
<g>
	<g>
		<circle cx="157.904" cy="72.65" r="9.839"/>
		<circle cx="183.366" cy="72.65" r="9.839"/>
		<path d="M191.982,137.851c-0.102,0.007-0.201,0.011-0.305,0.011c-2.104,0-3.814-1.71-3.814-3.815
			c0-11.912,7.475-16.87,7.793-17.074c0.07-0.046,0.142-0.086,0.213-0.121c0.002-0.002,0.006-0.005,0.009-0.007
			c-0.009-0.045-0.02-0.089-0.029-0.136c-1.638-1.393-2.684-3.462-2.684-5.776c0-1.114,0.246-2.168,0.681-3.121
			c-0.159-0.675-0.298-1.251-0.404-1.692v-7.357c0.853,1.773,1.515,3.999,1.901,6.862c1.376-1.399,3.289-2.272,5.401-2.272
			c0.694,0,1.365,0.102,2.006,0.278c-1.789-11.001-7.229-15.337-12.791-18.747c-0.195-0.121-0.398-0.212-0.604-0.292
			c-1.098-0.724-2.326-1.255-3.582-1.555c-0.008-0.001-0.017-0.002-0.023-0.003l-2.376,2.494l-2.452-2.468
			c-1.362,0.335-2.695,0.944-3.859,1.775c-0.033,0.02-0.07,0.028-0.104,0.05c-2.182,1.336-4.342,2.815-6.269,4.781
			c-1.924-2.048-4.14-3.651-6.435-5.058c-0.336-0.207-0.695-0.336-1.061-0.428c-0.896-0.502-1.86-0.88-2.837-1.121l-2.452,2.468
			l-2.375-2.494c-0.01,0.001-0.019,0.002-0.024,0.003c-1.255,0.301-2.483,0.831-3.58,1.554c-0.206,0.081-0.413,0.172-0.606,0.292
			c-5.831,3.576-11.156,8.497-12.119,19.326c1.039-0.546,2.214-0.857,3.464-0.857c1.533,0,2.956,0.464,4.144,1.255
			c0.184-1.907,0.534-3.522,1.029-4.912v5.742c1.428,1.365,2.323,3.282,2.323,5.409c0,1.908-0.727,3.646-1.905,4.97
			c0.044,0.128,0.081,0.257,0.133,0.382c-0.026,0.199-0.044,0.398-0.044,0.604v0.436c0.034,0.028,0.072,0.058,0.11,0.087
			c1.381,1.025,7.313,6.039,7.313,16.583c0,2.085-1.696,3.785-3.783,3.785c-0.798,0-1.536-0.248-2.147-0.67
			c-0.026,0.066-0.057,0.134-0.086,0.199l-0.002,18.33c0,0.339-0.042,0.666-0.114,0.982c0.821,0.84,1.965,1.36,3.229,1.36
			c2.494,0,4.514-2.021,4.514-4.515l-0.006-31.392c0.178,0.01,0.356,0.022,0.536,0.022c0.034,0,0.07-0.003,0.106-0.004
			l-0.001,31.374c0,2.493,2.021,4.515,4.516,4.515c2.493,0,4.515-2.021,4.515-4.515l0.001-36.354c0.058-0.11,0.112-0.22,0.165-0.331
			c0.059,0.002,0.111,0.017,0.167,0.017c0.021,0,0.037,0,0.057,0c1.129-0.016,2.137-0.524,2.825-1.315
			c0.243,0.218,0.518,0.405,0.815,0.556c-1.581,7.149-3.342,15.518-3.352,17.351c-0.007,1.5,2.702,2.787,6.521,3.598v16.479
			c0,2.493,2.021,4.513,4.515,4.513c2.495,0,4.515-2.021,4.515-4.515v-15.566c0.211,0,0.426,0,0.641-0.001l-0.004,15.568
			c0,2.493,2.021,4.513,4.516,4.515c2.494,0,4.513-2.021,4.513-4.515l0.002-7.524h-2.367L191.982,137.851z"/>
		<circle cx="142.926" cy="110.735" r="5.757"/>
		<path d="M152.243,135.842c1.131,0,2.048-0.915,2.048-2.047c0-9.868-5.487-14.375-6.668-15.229
			c-0.397-0.355-0.913-0.711-1.602-1.086c-0.523-0.292-1.086-0.513-1.658-0.654l-1.437,1.444l-1.392-1.461
			c-0.004,0-0.009,0.002-0.013,0.004c-0.897,0.213-1.761,0.637-2.497,1.214c-0.062,0.031-0.125,0.057-0.185,0.094
			c-0.281,0.182-6.894,4.571-6.894,15.387c0,1.131,0.915,2.048,2.047,2.048c1.13,0,2.047-0.916,2.047-2.048
			c0-2.457,0.411-4.472,0.992-6.113v7.146c0,0.6,0.115,1.163,0.322,1.679c-0.017,0.116-0.027,0.234-0.027,0.354l0.002,18.864
			c0,1.458,1.184,2.642,2.643,2.64c1.456,0,2.639-1.183,2.639-2.64v-15.83c0.105,0.004,0.209,0.013,0.314,0.013
			c0.021,0,0.041,0,0.063-0.002v15.819c0,1.458,1.182,2.64,2.642,2.64c1.459,0,2.643-1.183,2.643-2.64l0.001-18.733
			c0.344-0.641,0.549-1.367,0.549-2.163v-7.839c0.779,1.794,1.376,4.119,1.376,7.093
			C150.198,134.925,151.112,135.842,152.243,135.842z"/>
		<circle cx="201.01" cy="110.82" r="5.843"/>
		<path d="M205.774,118.767c-0.402-0.361-0.926-0.72-1.623-1.102c-0.532-0.296-1.105-0.52-1.686-0.664l-1.455,1.467l-1.41-1.482
			c-0.005,0-0.013,0.002-0.017,0.002c-0.906,0.218-1.786,0.647-2.53,1.234c-0.065,0.029-0.128,0.054-0.188,0.093
			c-0.289,0.183-6.998,4.638-6.998,15.616c0,1.149,0.93,2.078,2.077,2.078s2.078-0.929,2.078-2.078c0-2.495,0.417-4.538,1.003-6.203
			v4.265l-2.124,12.012h2.424l0.003,12.181c0,1.484,1.199,2.683,2.679,2.683c1.482,0,2.679-1.199,2.679-2.683v-12.181h0.381
			l-0.001,12.181c0,1.484,1.201,2.683,2.681,2.683c1.48,0,2.682-1.199,2.682-2.683v-12.181h2.666l-2.108-11.91v-5.07
			c0.79,1.819,1.396,4.181,1.396,7.197c0,1.147,0.929,2.079,2.079,2.079c1.146,0,2.076-0.929,2.076-2.079
			C212.542,124.209,206.972,119.635,205.774,118.767z"/>
		<path d="M134.029,156.104l-0.002-16.606c-0.019,0-0.037,0-0.056,0c-2.936,0-5.323-2.389-5.323-5.324
			c0-6.949,2.374-11.627,4.609-14.499h-9.788v31.329h-17.53v-59.3h34.03c2.518-3.967,5.853-6.59,9.147-8.658
			c-2.666-2.402-4.354-5.868-4.354-9.732c0-7.23,5.882-13.114,13.114-13.114c2.213,0,4.293,0.559,6.122,1.532L140.49,43.408
			c-0.916-0.964-2.188-1.51-3.518-1.51c-1.33,0-2.601,0.546-3.518,1.51L103.27,68.77V55.071l-12.986-0.021v22.94l-7.185,7.186
			c-2.564,2.564-2.564,6.721,0,9.283c2.563,2.565,6.718,2.565,9.283,0l3.456-3.455v65.049c0,2.789,2.263,5.049,5.052,5.049h35.908
			C135.137,160.055,134.029,158.208,134.029,156.104z"/>
	</g>
</g>
<text transform="matrix(0.8869 0 0 1 49.4817 189.2549)" font-family="'MyriadPro-Regular'" font-size="29.354">Затишна домашня</text>
<text transform="matrix(0.8869 0 0 1 70.8206 219.6963)" font-family="'MyriadPro-Regular'" font-size="29.354">   атмосфера</text>
</svg>
