<?xml version="1.0" encoding="utf-8"?>
<!-- Generator: Adobe Illustrator 15.0.0, SVG Export Plug-In . SVG Version: 6.00 Build 0)  -->
<!DOCTYPE svg PUBLIC "-//W3C//DTD SVG 1.1//EN" "http://www.w3.org/Graphics/SVG/1.1/DTD/svg11.dtd">
<svg version="1.1" id="Слой_1" xmlns="http://www.w3.org/2000/svg" xmlns:xlink="http://www.w3.org/1999/xlink" x="0px" y="0px"
	 width="300px" height="300px" viewBox="0 0 300 300" enable-background="new 0 0 300 300" xml:space="preserve">
<circle fill="none" stroke="#FDC54C" stroke-width="2" stroke-miterlimit="10" cx="150" cy="150" r="145.53"/>
<circle fill="#F24841" cx="62.182" cy="32.13" r="19.442"/>
<text transform="matrix(1 0 0 1 53.6641 42.5449)" font-family="'PTSans-Bold'" font-size="30.5856">1</text>
<g>
	<g id="Layer_5_41_">
		<g>
			<circle fill="#FDC54C" cx="147.97" cy="114.697" r="6.482"/>
			<path fill="#FDC54C" d="M198.008,199.682c-3.121-1.674-2.64-4.695-2.64-6.586v-26.449c9.128-1.863,29.215-2.035,29.215-20.077
				c0-8.916-7.274-12.179-16.144-11.278c-7.073,0.72-10.4,5.44-22.381,0.934c-1.52-0.571-5.757-4.311-3.331-7.268
				c6.202-7.562,9.702-17.42,9.702-28.036c0-1.734-0.016-5.211,1.539-5.861c7.98-3.331,13.377-11.597,13.377-20.94
				c0-12.653-10.074-22.912-22.5-22.912c-6.737,0-12.781,3.017-16.906,7.794c-0.361,0.419-1.007,1.289-2.588,0.605
				c-5.598-2.633-10.281-3.414-16.853-3.414c-7.058,0-12.188,0.952-18.097,3.964c-1.866,0.57-3.133-1.352-4.055-2.284
				c-4.067-4.118-9.669-6.666-15.857-6.666c-12.428,0-22.503,10.258-22.503,22.912c0,9.714,5.938,18.015,14.32,21.347
				c0.811,0.322,2.063,1.294,2.263,5.455c0.506,10.525,3.581,20.223,9.569,27.866c2.221,2.834,0.081,6.492-3.261,7.524
				c-12.19,3.769-15.269-0.293-22.316-1.021c-8.869-0.915-16.144,2.363-16.144,11.278c0,17.555,20.082,18.182,29.214,20.02v26.506
				c0,1.943,0.272,4.668-3.784,7.174c-11.326,4.668-27.582,5.027-27.582,20.877c0,9.645,7.999,19.322,17.463,17.463
				c11.855-2.33,18.078-6.264,36.067-14.406c3.875-1.764,6.608-0.881,8.309-0.641c5.103,0.715,10.627,0.992,16.393,0.992
				c6.442,0,12.583-0.346,18.169-1.264c1.41-0.23,4.708-0.363,7.735,0.867c17.556,8.172,23.188,12.1,34.868,14.451
				c9.455,1.902,17.463-7.818,17.463-17.463C226.735,205.297,209.313,204.41,198.008,199.682z M169.761,121.179
				c0,9.442-9.756,17.098-21.792,17.098c-12.034,0-21.792-7.655-21.792-17.098c0-9.443,9.756-17.098,21.792-17.098
				C160.005,104.082,169.761,111.736,169.761,121.179z M116.611,92.979c0-4.296,3.481-7.779,7.778-7.779
				c4.296,0,7.78,3.483,7.78,7.779c0,4.297-3.483,7.779-7.78,7.779C120.092,100.759,116.611,97.275,116.611,92.979z
				 M174.825,189.217c0,14.539-11.787,21.068-26.324,21.068c-14.54,0-26.326-6.529-26.326-21.068v-12.379
				c0-14.539,11.787-26.324,26.326-26.324c14.537,0,26.324,11.785,26.324,26.324V189.217z M168.796,100.759
				c-4.297,0-7.78-3.483-7.78-7.779c0-4.296,3.483-7.779,7.78-7.779s7.779,3.483,7.779,7.779
				C176.575,97.275,173.093,100.759,168.796,100.759z"/>
		</g>
	</g>
</g>
<text transform="matrix(1 0 0 1 50.2153 179.4287)"><tspan x="0" y="0" fill="#FFFFFF" font-family="'PTSans-Bold'" font-size="25">Затишна домашня </tspan><tspan x="44.312" y="28" fill="#FFFFFF" font-family="'PTSans-Bold'" font-size="25">атмосфера</tspan></text>
</svg>
