<?xml version="1.0" encoding="utf-8"?>
<!-- Generator: Adobe Illustrator 15.0.0, SVG Export Plug-In . SVG Version: 6.00 Build 0)  -->
<!DOCTYPE svg PUBLIC "-//W3C//DTD SVG 1.1//EN" "http://www.w3.org/Graphics/SVG/1.1/DTD/svg11.dtd">
<svg version="1.1" id="Слой_1" xmlns="http://www.w3.org/2000/svg" xmlns:xlink="http://www.w3.org/1999/xlink" x="0px" y="0px"
	 width="300px" height="300px" viewBox="0 0 300 300" enable-background="new 0 0 300 300" xml:space="preserve">
<circle fill="none" stroke="#FDC54C" stroke-width="2" stroke-miterlimit="10" cx="150" cy="150" r="145.53"/>
<circle fill="#F24841" cx="62.182" cy="32.13" r="19.442"/>
<text transform="matrix(1 0 0 1 53.6641 42.5449)" font-family="'PTSans-Bold'" font-size="30.5856">1</text>
<g>
	<g>
		<polygon fill="#FDC54C" points="172.834,121.303 172.939,122.037 171.82,122.274 171.686,123.836 172.998,123.836 
			174.762,123.673 175.686,122.596 174.715,122.217 174.182,121.608 173.377,120.323 172.998,118.497 171.508,118.799 
			171.088,119.441 171.088,120.158 171.803,120.649 		"/>
		<polygon fill="#FDC54C" points="171.561,121.904 171.648,120.921 170.762,120.54 169.529,120.833 168.631,122.286 
			168.631,123.235 169.686,123.235 		"/>
		<path fill="#FDC54C" d="M145.085,127.796l0.793-0.068l0.51-0.314l0.123-0.63l0.646-0.056l0.261-0.527l-0.604-0.127l-0.515,0.012
			l-0.271,0.692h-1.309v0.672h0.314C145.043,127.462,145.049,127.601,145.085,127.796z"/>
		<polygon fill="#FDC54C" points="143.925,127.231 143.369,126.79 142.931,127.322 142.883,127.97 143.831,127.906 		"/>
		<path fill="#FDC54C" d="M196.834,73.417c-1.639,3.237-0.758,7.286,2.273,9.491c2.883,2.092,6.717,1.838,9.322-0.364
			c-0.131,1.231-0.604,3.625-2.213,5.401c5.137,3.66,6.865-3.975,3.746-7.207c0.195-0.322,0.385-0.636,0.531-0.971
			c1.131-1.989,2.203-6.928-2.604-10.249c-4.137-2.868-7.25-0.447-8.818,1.254c-0.48,0.358-0.918,0.77-1.32,1.25
			c-5.961-2.939-9.293,2.855-6.133,5.297C193.359,74.301,195.93,73.573,196.834,73.417z M199.119,73.718
			c1.107,0.323,2.848-0.719,2.848-0.719s0.379,0.556-0.859,2.252c0.668,0.977,4.398-0.846,4.398-0.846l-1.693,2.32
			c0.799,1.006,4.18,2.921,4.18,2.921l0.047,0.177c-0.035,0.06-0.064,0.122-0.1,0.157c-1.76,2.412-5.156,2.95-7.578,1.202
			C197.977,79.459,197.443,76.133,199.119,73.718z"/>
		<polygon fill="#FDC54C" points="183.877,103.017 183.877,103.022 188.637,96.491 189.762,97.308 185.002,103.848 184.445,104.606 
			187.459,106.805 188.016,106.035 187.357,105.556 192.129,99.024 196.023,101.866 197.656,91.558 199.766,89.072 199.854,96.677 
			202.748,97.861 202.641,85.728 200.262,83.999 197.703,82.126 195.543,80.554 184.291,83.41 183.748,86.405 192.365,84.44 
			191.088,86.781 181.25,91.096 186.293,94.769 181.533,101.309 180.854,100.824 180.303,101.587 183.322,103.786 		"/>
		<path fill="#FDC54C" d="M160.979,61.01c-0.51,3.552,1.957,6.831,5.51,7.334c3.545,0.491,6.824-1.965,7.332-5.522
			c0.309-2.214,1.381-4.134-0.158-5.528c-0.936-0.829-5.398-1.8-6.713-1.989c-1.586-0.222-3.822,0.779-5.078,1.565
			C160.309,57.853,161.25,59.027,160.979,61.01z M163.008,60.652c1.213-0.062,1.959,0.453,1.959,0.453l2.113-0.684
			c0,0-1.195,1.317-0.225,0.959c2.096-0.394,4.297,0.192,5.41,0.586c0.006,0.26,0.006,0.515-0.037,0.784
			c-0.371,2.646-2.781,4.484-5.373,4.12c-2.611-0.364-4.41-2.806-4.025-5.442C162.854,61.149,162.936,60.9,163.008,60.652z"/>
		<polygon fill="#FDC54C" points="161.172,74.1 159.326,85.514 160.605,85.683 159.475,93.703 158.67,93.588 158.545,94.52 
			162.227,95.041 162.357,94.108 163.494,86.101 164.867,86.296 163.742,94.295 163.611,95.242 167.299,95.769 167.424,94.825 
			166.631,94.709 167.754,86.701 169.305,86.92 170.768,76.586 174.018,82.786 175.934,80.507 170.869,70.021 162.369,68.829 
			153.525,78.938 155.42,81.587 		"/>
		<path fill="#FDC54C" d="M246.477,135.396c-0.793-4.957-4.689-5.552-7.008-5.493c-0.592-0.11-1.195-0.127-1.811-0.095
			c-2.002-6.336-8.488-4.735-8.068-0.758c3.379-0.844,5.676,0.521,6.422,1.066c-3.469,1.059-5.777,4.492-5.279,8.207
			c0.473,3.515,3.326,6.125,6.705,6.472c-0.982,0.751-3.035,2.08-5.426,2.146c0.887,6.233,7.609,2.196,7.793-2.285
			c0.361-0.083,0.717-0.163,1.061-0.29C243.102,143.81,247.412,141.164,246.477,135.396z M238.438,137.432
			c-0.172,1.272,0.789,5.042,0.789,5.042l-0.102,0.157c-0.059,0.012-0.125,0.036-0.184,0.042c-2.953,0.402-5.688-1.672-6.104-4.641
			c-0.389-2.909,1.635-5.608,4.535-6.061c0.531,1.012,2.473,1.551,2.473,1.551s-0.123,0.66-2.213,0.947
			c-0.225,1.151,3.652,2.575,3.652,2.575L238.438,137.432z"/>
		<polygon fill="#FDC54C" points="230.756,139.903 230.316,136.767 229.975,134.118 220.125,127.965 217.574,129.637 
			224.967,134.511 222.398,135.195 212.455,131.093 213.295,137.269 205.281,138.347 205.168,137.542 204.238,137.669 
			204.736,141.359 205.672,141.232 205.672,141.238 213.68,140.151 213.863,141.542 205.861,142.614 204.92,142.747 
			205.416,146.432 206.357,146.304 206.252,145.5 214.254,144.419 214.904,149.201 223.477,143.244 226.742,143.063 
			221.297,148.391 222.445,151.268 231.141,142.821 		"/>
		<path fill="#FDC54C" d="M231.1,111.436c2.029-0.938,4.213-1.098,4.551-3.151c0.184-1.226-1.408-5.49-1.977-6.715
			c-0.658-1.441-2.729-2.782-4.066-3.406c-1.656-0.775-2.154,0.666-3.965,1.503c-3.244,1.51-4.666,5.357-3.162,8.613
			C223.996,111.534,227.844,112.945,231.1,111.436z M226.305,101.442c0.248-0.109,0.496-0.177,0.746-0.254
			c0.697,0.988,0.674,1.891,0.674,1.891l1.717,1.394c0,0-1.758-0.296-0.924,0.319c1.469,1.554,2.154,3.729,2.439,4.875
			c-0.213,0.139-0.414,0.284-0.662,0.399c-2.422,1.116-5.281,0.104-6.381-2.291C222.813,105.399,223.885,102.57,226.305,101.442z"/>
		<polygon fill="#FDC54C" points="205.352,106.195 214.764,106.953 204.18,111.605 204.725,112.783 197.385,116.177 
			197.041,115.432 196.189,115.831 197.74,119.22 198.609,118.82 205.943,115.419 206.535,116.687 199.207,120.092 198.332,120.48 
			199.9,123.869 200.76,123.46 200.428,122.727 207.768,119.335 208.412,120.747 217.889,116.352 214.438,122.454 217.402,122.818 
			223.451,112.872 219.834,105.091 206.547,103.165 		"/>
		<path fill="#FDC54C" d="M224.594,199.714c3.031-5.926-2.705-9.346-5.189-6.209c2.982,1.776,3.656,4.362,3.811,5.268
			c-3.207-1.682-7.27-0.876-9.523,2.131c-2.137,2.842-1.941,6.688,0.219,9.328c-1.23-0.16-3.621-0.662-5.363-2.308
			c-3.752,5.084,3.871,6.925,7.15,3.87c0.309,0.19,0.629,0.379,0.959,0.539c1.965,1.154,6.891,2.313,10.287-2.433
			c2.924-4.091,0.568-7.239-1.131-8.844C225.477,200.561,225.063,200.128,224.594,199.714z M221.303,203.011
			c-0.977,0.657,0.781,4.403,0.781,4.403l-2.297-1.723c-1.012,0.781-2.988,4.144-2.988,4.144l-0.166,0.041
			c-0.064-0.041-0.123-0.065-0.158-0.101c-2.387-1.793-2.873-5.19-1.084-7.594c1.775-2.355,5.113-2.841,7.475-1.136
			c-0.326,1.113,0.682,2.853,0.682,2.853S222.979,204.271,221.303,203.011z"/>
		<polygon fill="#FDC54C" points="198.688,204.282 210.82,204.384 212.596,202.028 214.49,199.495 216.1,197.376 213.414,186.064 
			210.424,185.484 212.26,194.126 209.943,192.818 205.777,182.898 202.014,187.882 195.563,183.022 196.059,182.365 
			195.295,181.791 193.057,184.78 193.811,185.343 193.811,185.349 200.262,190.215 199.445,191.332 192.969,186.473 
			192.211,185.894 189.975,188.87 190.732,189.443 191.217,188.8 197.693,193.646 194.773,197.519 205.057,199.293 207.518,201.453 
			199.9,201.431 		"/>
		<path fill="#FDC54C" d="M237.563,171.274c-3.379-1.221-7.09,0.531-8.299,3.905c-1.219,3.374,0.521,7.085,3.9,8.299
			c2.113,0.757,3.766,2.178,5.451,0.959c0.994-0.729,2.865-4.907,3.314-6.175c0.545-1.503,0.025-3.899-0.496-5.285
			C240.781,171.262,239.422,171.942,237.563,171.274z M236.627,175.163l0.248,2.195c0,0-1.041-1.439-0.881-0.415
			c-0.047,2.132-1.084,4.167-1.676,5.174c-0.26-0.048-0.508-0.096-0.77-0.19c-2.498-0.893-3.811-3.634-2.924-6.096
			c0.889-2.462,3.646-3.729,6.168-2.842c0.248,0.095,0.467,0.219,0.697,0.344C237.303,174.528,236.627,175.163,236.627,175.163z"/>
		<polygon fill="#FDC54C" points="229.613,171.037 221.521,160.324 218.539,161.638 224.707,168.788 213.898,164.668 
			213.461,165.869 205.855,163.123 206.133,162.359 205.244,162.046 203.979,165.562 204.867,165.869 212.473,168.615 
			211.998,169.924 204.393,167.189 203.506,166.863 202.238,170.373 203.125,170.688 203.404,169.918 211.01,172.665 
			210.482,174.144 220.303,177.684 213.566,179.596 215.402,181.927 226.707,179.098 		"/>
		<path fill="#FDC54C" d="M171.088,228.195c0.799,3.392-0.611,5.665-1.156,6.398c-1.004-3.48-4.408-5.854-8.131-5.41
			c-3.518,0.414-6.18,3.221-6.57,6.605c-0.746-0.994-2.023-3.071-2.07-5.457c-6.24,0.805-2.309,7.576,2.166,7.837
			c0.07,0.372,0.152,0.716,0.271,1.064c0.525,2.227,3.096,6.583,8.877,5.754c4.973-0.722,5.625-4.61,5.605-6.932
			c0.125-0.597,0.148-1.194,0.125-1.811C176.568,234.327,175.064,227.822,171.088,228.195z M166.453,238.376
			c0,0-0.664-0.147-0.912-2.231c-1.148-0.249-2.641,3.611-2.641,3.611l-0.342-2.854c-1.268-0.189-5.045,0.698-5.045,0.698
			l-0.164-0.101c-0.012-0.077-0.023-0.13-0.035-0.189c-0.361-2.96,1.764-5.665,4.734-6.02c2.912-0.35,5.576,1.723,5.984,4.629
			C167.021,236.44,166.453,238.376,166.453,238.376z"/>
		<polygon fill="#FDC54C" points="160.215,229.178 163.363,228.787 166.014,228.479 172.318,218.719 170.68,216.157 
			165.701,223.461 165.068,220.886 169.318,211.024 163.127,211.765 162.166,203.727 162.984,203.627 162.865,202.696 
			159.166,203.129 159.291,204.076 159.279,204.076 160.232,212.097 158.842,212.274 157.889,204.235 157.787,203.294 
			154.076,203.739 154.201,204.686 155.006,204.585 155.959,212.605 151.17,213.191 156.994,221.851 157.125,225.101 
			151.881,219.595 148.968,220.685 157.289,229.516 		"/>
		<path fill="#FDC54C" d="M191.146,222.632c-3.279,1.438-4.746,5.273-3.291,8.559c0.895,2.048,1.018,4.22,3.066,4.605
			c1.23,0.206,5.527-1.327,6.76-1.877c1.443-0.645,2.816-2.682,3.455-4.025c0.805-1.645-0.627-2.153-1.432-3.971
			C198.248,222.644,194.412,221.164,191.146,222.632z M196.271,227.952l-1.426,1.682c0,0,0.336-1.752-0.303-0.918
			c-1.574,1.439-3.758,2.102-4.912,2.374c-0.137-0.225-0.283-0.438-0.385-0.687c-1.094-2.427-0.018-5.262,2.387-6.333
			c2.396-1.066,5.207,0.053,6.297,2.474c0.119,0.261,0.172,0.509,0.248,0.758C197.184,227.982,196.271,227.952,196.271,227.952z"/>
		<polygon fill="#FDC54C" points="196.516,206.769 193.508,205.514 192.613,214.92 188.104,204.26 186.932,204.786 183.646,197.4 
			184.398,197.068 184.02,196.198 180.605,197.707 181,198.583 184.281,205.977 183.002,206.532 179.723,199.158 179.32,198.275 
			175.934,199.79 176.314,200.661 177.049,200.323 180.338,207.729 178.912,208.343 183.145,217.891 177.102,214.345 
			176.693,217.305 186.553,223.502 194.391,220.021 		"/>
		<path fill="#FDC54C" d="M113.561,221.637c-1.291,3.237-3.729,4.31-4.604,4.605c1.148-3.438-0.29-7.315-3.611-9.079
			c-3.137-1.651-6.913-0.853-9.174,1.692c-0.035-1.237,0.088-3.676,1.415-5.664c-5.594-2.907-6.209,4.918-2.67,7.677
			c-0.147,0.344-0.296,0.668-0.384,1.035c-0.835,2.132-1.196,7.174,4.03,9.767c4.499,2.249,7.245-0.58,8.553-2.492
			c0.42-0.421,0.805-0.893,1.131-1.426C114.567,229.806,117.024,223.597,113.561,221.637z M106.648,226.254
			c-1.137-0.147-2.705,1.119-2.705,1.119s-0.456-0.498,0.526-2.356c-0.811-0.857-4.226,1.468-4.226,1.468l1.349-2.545
			c-0.924-0.876-4.558-2.291-4.558-2.291l-0.071-0.171c0.024-0.054,0.042-0.125,0.071-0.166c1.397-2.646,4.676-3.664,7.322-2.261
			C106.95,220.418,107.962,223.644,106.648,226.254z"/>
		<polygon fill="#FDC54C" points="121.859,206.509 116.355,203.591 120.131,196.44 120.853,196.831 121.303,195.991 
			118.006,194.251 117.557,195.097 117.557,195.091 113.774,202.223 112.556,201.578 116.331,194.429 116.764,193.605 
			113.479,191.859 113.028,192.683 113.75,193.079 109.968,200.211 105.695,197.956 105.559,208.396 103.825,211.155 
			102.647,203.638 99.628,202.88 101.451,214.878 104.043,216.257 106.861,217.737 109.21,218.991 119.942,214.564 120.054,211.521 
			111.821,214.683 112.744,212.196 		"/>
		<path fill="#FDC54C" d="M133.207,228.474c-3.517-0.662-6.92,1.646-7.577,5.173c-0.408,2.19-1.568,4.061-0.088,5.528
			c0.888,0.882,5.291,2.049,6.61,2.309c1.569,0.284,3.854-0.604,5.144-1.338c1.598-0.899,0.705-2.143,1.078-4.084
			C139.048,232.522,136.728,229.137,133.207,228.474z M136.326,236.304c-1.208,0-1.924-0.544-1.924-0.544l-2.148,0.592
			c0,0,1.278-1.255,0.284-0.941c-2.119,0.296-4.285-0.396-5.381-0.846c0.006-0.261,0.018-0.515,0.065-0.781
			c0.498-2.634,2.984-4.351,5.564-3.859c2.581,0.479,4.261,2.989,3.765,5.629C136.498,235.818,136.414,236.062,136.326,236.304z"/>
		<polygon fill="#FDC54C" points="138.788,222.963 141.155,211.652 139.889,211.415 141.392,203.472 142.209,203.614 
			142.387,202.696 138.717,201.986 138.533,202.927 137.035,210.865 135.663,210.604 137.171,202.674 137.343,201.727 
			133.68,201.046 133.507,201.969 134.313,202.123 132.798,210.06 131.27,209.782 129.318,220.033 126.364,213.677 124.352,215.867 
			128.92,226.579 137.343,228.184 146.648,218.494 144.884,215.76 		"/>
		<path fill="#FDC54C" d="M71.679,179.424c-3.232,1.308-5.688,0.29-6.511-0.143c3.279-1.544,5.09-5.273,4.066-8.884
			c-0.983-3.409-4.173-5.588-7.571-5.457c0.876-0.876,2.711-2.475,5.066-2.889c-1.782-6.049-7.842-1.09-7.395,3.373
			c-0.352,0.131-0.689,0.272-1.006,0.439c-2.122,0.875-6.005,4.096-4.273,9.671c1.491,4.806,5.43,4.83,7.724,4.439
			c0.595,0.023,1.193-0.03,1.803-0.154C66.471,185.798,72.673,183.283,71.679,179.424z M63.558,177.631
			c-0.663-0.918-2.678-1.173-2.678-1.173s0.044-0.675,2.068-1.255c0.065-1.172-3.983-2.03-3.983-2.03l2.764-0.793
			c-0.012-1.278-1.497-4.882-1.497-4.882l0.079-0.161c0.065-0.024,0.122-0.064,0.175-0.076c2.871-0.816,5.877,0.857,6.695,3.729
			C67.986,173.818,66.363,176.76,63.558,177.631z"/>
		<polygon fill="#FDC54C" points="94.645,167.532 95.55,167.272 94.532,163.685 93.626,163.946 93.614,163.946 85.837,166.153 
			85.458,164.815 93.236,162.602 94.147,162.342 93.129,158.755 92.218,159.021 92.43,159.796 84.671,162.021 83.327,157.364 
			75.716,164.489 72.514,165.136 77.125,159.086 75.586,156.393 68.175,166.006 68.986,168.84 69.856,171.889 70.584,174.446 
			81.208,179.134 83.476,177.109 75.479,173.356 77.941,172.304 88.347,174.949 86.63,168.953 94.408,166.739 		"/>
		<path fill="#FDC54C" d="M71.36,196.44c-1.877,1.214-4.013,1.675-4.06,3.759c-0.012,1.242,2.178,5.244,2.911,6.369
			c0.876,1.344,3.102,2.373,4.522,2.799c1.752,0.533,2.037-0.971,3.693-2.06c3.007-1.953,3.86-5.954,1.894-8.961
			C78.373,195.346,74.366,194.487,71.36,196.44z M77.527,205.65c-0.225,0.143-0.461,0.261-0.698,0.373
			c-0.841-0.882-0.947-1.775-0.947-1.775l-1.894-1.144c0,0,1.776,0.054,0.87-0.443c-1.674-1.332-2.67-3.379-3.107-4.469
			c0.19-0.166,0.378-0.343,0.61-0.491c2.231-1.45,5.202-0.853,6.635,1.345C80.416,201.229,79.765,204.206,77.527,205.65z"/>
		<polygon fill="#FDC54C" points="97.592,197.974 88.175,198.56 97.982,192.452 97.284,191.362 104.056,186.959 104.505,187.645 
			105.299,187.124 103.262,184.005 102.481,184.52 95.686,188.924 94.917,187.764 101.712,183.342 102.493,182.827 100.469,179.714 
			99.687,180.224 100.125,180.91 93.354,185.308 92.496,184.011 83.754,189.692 86.287,183.159 83.304,183.235 78.746,193.937 
			83.417,201.135 96.835,201.152 		"/>
		<path fill="#FDC54C" d="M68.027,106.133c0.409,0.429,0.882,0.82,1.392,1.14c-2.149,6.292,4.024,8.86,6.037,5.413
			c-3.208-1.335-4.25-3.788-4.522-4.667c3.427,1.213,7.327-0.174,9.127-3.469c1.705-3.113,0.97-6.901-1.539-9.198
			c1.231-0.018,3.664,0.139,5.635,1.509c2.982-5.546-4.818-6.292-7.623-2.793c-0.333-0.148-0.682-0.305-1.042-0.403
			c-2.095-0.858-7.138-1.308-9.836,3.88C63.346,102.01,66.127,104.798,68.027,106.133z M72.212,103.552
			c0.875-0.802-1.397-4.244-1.397-4.244l2.521,1.388c0.888-0.92,2.368-4.528,2.368-4.528l0.166-0.065
			c0.071,0.023,0.119,0.035,0.184,0.065c2.605,1.438,3.581,4.741,2.148,7.363c-1.421,2.59-4.652,3.534-7.245,2.185
			c0.167-1.139-1.077-2.723-1.077-2.723S70.376,102.54,72.212,103.552z"/>
		<polygon fill="#FDC54C" points="100.978,120.845 102.765,117.577 101.96,117.11 101.949,117.11 94.869,113.218 95.539,112.007 
			102.617,115.896 103.452,116.346 105.239,113.073 104.411,112.629 104.008,113.333 96.941,109.447 99.25,105.212 88.833,104.922 
			86.098,103.126 93.638,102.073 94.42,99.06 82.41,100.69 80.996,103.277 79.469,106.053 78.178,108.394 82.439,119.202 
			85.482,119.358 82.439,111.049 84.919,112.031 90.466,121.244 93.467,115.784 100.551,119.655 100.149,120.382 		"/>
		<path fill="#FDC54C" d="M59.959,139.595c3.511,0.729,6.937-1.539,7.659-5.049c0.722-3.504-1.527-6.934-5.042-7.653
			c-2.19-0.45-4.041-1.64-5.538-0.178c-0.885,0.873-2.134,5.256-2.4,6.576c-0.322,1.562,0.54,3.862,1.249,5.158
			C56.772,140.075,58.021,139.202,59.959,139.595z M59.768,133.481c0,0,1.222,1.279,0.932,0.296
			c-0.267-2.122,0.468-4.279,0.92-5.368c0.261,0.012,0.515,0.024,0.784,0.083c2.616,0.533,4.303,3.048,3.771,5.626
			c-0.533,2.568-3.078,4.211-5.688,3.672c-0.266-0.062-0.503-0.139-0.751-0.236c0.033-1.208,0.583-1.921,0.583-1.921L59.768,133.481
			z"/>
		<polygon fill="#FDC54C" points="80.368,125.905 69.578,130.303 67.855,138.699 77.385,148.148 80.149,146.42 73.041,140.22 
			84.31,142.765 84.57,141.51 92.496,143.129 92.336,143.94 93.259,144.129 94.012,140.474 93.093,140.294 85.168,138.663 
			85.446,137.293 93.366,138.923 94.29,139.098 95.041,135.467 94.124,135.269 93.946,136.062 86.038,134.431 86.334,132.904 
			76.125,130.8 82.535,127.947 		"/>
		<path fill="#FDC54C" d="M124.949,71.368c-0.853-3.376,0.509-5.679,1.054-6.425c1.071,3.472,4.51,5.771,8.215,5.259
			c3.517-0.482,6.12-3.338,6.464-6.721c0.757,0.983,2.077,3.031,2.148,5.419c6.233-0.908,2.172-7.618-2.309-7.795
			c-0.076-0.355-0.159-0.72-0.29-1.06c-0.568-2.211-3.214-6.517-8.985-5.582c-4.96,0.805-5.54,4.703-5.469,7.02
			c-0.106,0.592-0.137,1.193-0.096,1.812C119.362,65.319,120.96,71.792,124.949,71.368z M129.388,61.093
			c0,0,0.663,0.127,0.953,2.202c1.155,0.231,2.575-3.649,2.575-3.649l0.391,2.85c1.266,0.162,5.03-0.809,5.03-0.809l0.161,0.104
			c0.011,0.065,0.035,0.122,0.041,0.186c0.408,2.954-1.657,5.691-4.623,6.106c-2.917,0.405-5.617-1.619-6.072-4.511
			C128.861,63.04,129.388,61.093,129.388,61.093z"/>
		<polygon fill="#FDC54C" points="147.193,78.453 138.717,69.773 135.804,70.173 132.656,70.623 130.016,70.975 123.884,80.847 
			125.577,83.381 130.413,75.985 131.117,78.551 127.021,88.495 133.207,87.648 134.313,95.647 133.507,95.763 133.632,96.701 
			137.331,96.192 137.196,95.254 137.202,95.254 136.089,87.254 137.468,87.053 138.586,95.074 138.71,96.006 142.398,95.491 
			142.269,94.556 141.463,94.671 140.362,86.66 145.156,86 139.154,77.441 138.965,74.18 144.298,79.604 		"/>
		<path fill="#FDC54C" d="M92.259,79.986c2.042,2.96,6.073,3.697,9.015,1.661c2.948-2.03,3.693-6.061,1.657-9.023
			c-1.266-1.838-1.788-3.96-3.864-3.942c-1.243,0.021-5.179,2.323-6.292,3.087c-1.308,0.902-2.279,3.157-2.664,4.587
			C89.613,78.13,91.129,78.367,92.259,79.986z M95.271,77.373l1.078-1.927c0,0,0.006,1.775,0.479,0.855
			c1.272-1.71,3.297-2.758,4.386-3.232c0.171,0.177,0.349,0.358,0.51,0.589c1.503,2.193,0.994,5.176-1.167,6.674
			c-2.16,1.488-5.143,0.914-6.658-1.272c-0.148-0.226-0.261-0.462-0.379-0.705C94.372,77.506,95.271,77.373,95.271,77.373z"/>
		<polygon fill="#FDC54C" points="98.942,98.228 102.114,98.903 101.273,89.495 107.661,99.146 108.72,98.406 113.313,105.067 
			112.626,105.515 113.177,106.308 116.249,104.195 115.71,103.413 111.111,96.757 112.265,95.961 116.864,102.611 117.396,103.401 
			120.451,101.285 119.918,100.495 119.256,100.957 114.65,94.31 115.947,93.422 110.022,84.828 116.615,87.187 116.479,84.224 
			105.648,79.945 98.586,84.804 		"/>
		<path fill="#FDC54C" d="M110.744,118.565c-6.499,8.405-10.375,18.929-10.375,30.347c0,27.404,22.308,49.724,49.725,49.724
			c19.284,0,36.022-11.044,44.272-27.137c1.764-3.439,3.139-7.122,4.061-10.956c0.236-0.978,0.434-1.954,0.617-2.942
			c0.502-2.835,0.775-5.732,0.775-8.7c0-0.172-0.006-0.347-0.012-0.516c-0.014-1.456-0.09-2.903-0.225-4.321
			c-0.457-4.735-1.594-9.281-3.291-13.536h0.041l-0.143-0.834l-0.271-0.122c-2.262-5.342-5.436-10.207-9.318-14.406
			c-0.26-0.276-0.52-0.548-0.781-0.809c-0.732-0.77-1.49-1.509-2.271-2.222c-8.844-8.044-20.586-12.959-33.448-12.959
			c-12.98,0-24.807,5.001-33.673,13.175C114.367,114.262,112.466,116.334,110.744,118.565z M111.56,124.517l0.071,0.823l-1.9,2.306
			C110.306,126.577,110.915,125.535,111.56,124.517z M183.262,119.85l0.012-2.219c0.781,0.832,1.539,1.672,2.25,2.563l-0.887,1.334
			l-3.139-0.03l-0.189-0.648L183.262,119.85z M123.286,114.321v-0.08h0.994l0.089-0.343h1.633v0.708l-0.474,0.63h-2.237
			L123.286,114.321L123.286,114.321z M124.872,116.547c0,0,0.994-0.166,1.083-0.166c0.088,0,0,0.995,0,0.995l-2.25,0.133
			l-0.42-0.509L124.872,116.547z M120.244,140.395l1.201-2.229l2.794-1.406h5.386l-0.017,1.643l1.935,0.896l-0.154-2.799
			l1.385-1.409l2.817-1.847l0.19-1.302l2.805-2.917l2.995-1.648l-0.278-0.216l2.019-1.897l0.746,0.192l0.343,0.426l0.757-0.854
			l0.19-0.086l-0.841-0.115l-0.852-0.284v-0.832l0.449-0.376h0.995l0.456,0.201l0.396,0.793l0.485-0.071v-0.074l0.13,0.047
			l1.397-0.216l0.201-0.681l0.793,0.201v0.734l-0.746,0.516l0.118,0.811l2.527,0.781c0,0,0.006,0.015,0.006,0.033l0.591-0.057
			l0.037-1.098l-2-0.915l-0.118-0.521l1.662-0.568l0.078-1.602l-1.74-1.059l-0.119-2.693l-2.392,1.172h-0.876l0.225-2.051
			l-3.244-0.77l-1.349,1.018v3.105l-2.415,0.77l-0.964,2.012l-1.053,0.175v-2.574l-2.273-0.317l-1.142-0.746l-0.45-1.667l4.06-2.382
			l1.99-0.61l0.201,1.344l1.102-0.06l0.094-0.675l1.16-0.163l0.018-0.231l-0.492-0.21l-0.119-0.71l1.427-0.122l0.858-0.885
			l0.048-0.071h0.011l0.261-0.27l3.007-0.375l1.344,1.127l-3.475,1.856l4.416,1.042l0.579-1.479h1.93l0.676-1.291l-1.369-0.337
			v-1.636l-4.272-1.897l-2.954,0.337l-1.669,0.879l0.118,2.122l-1.746-0.26l-0.266-1.169l1.668-1.521l-3.03-0.145l-0.888,0.26
			l-0.379,1.024l1.137,0.192l-0.225,1.134l-1.941,0.097l-0.296,0.758l-2.807,0.086c0,0-0.076-1.595-0.188-1.595
			c-0.107,0,2.201-0.042,2.201-0.042l1.669-1.63l-0.912-0.456l-1.207,1.172l-2.013-0.109l-1.219-1.669h-2.58l-2.682,2.006h2.456
			l0.226,0.728l-0.634,0.606l2.729,0.077l0.415,0.982l-3.078-0.109l-0.154-0.77l-1.929-0.417l-1.024-0.568l-2.303,0.023
			c7.529-5.493,16.798-8.742,26.813-8.742c11.53,0,22.088,4.318,30.127,11.409l-0.551,0.962l-2.102,0.826l-0.887,0.962l0.193,1.13
			l1.096,0.145l0.652,1.643l1.869-0.758l0.32,2.187h-0.568l-1.539-0.23L177,121.839l-1.652,2.332l-2.359,0.376l-0.346,2.012
			l1.002,0.237l-0.297,1.302l-2.344-0.467l-2.148,0.467l-0.449,1.193l0.373,2.509l1.26,0.595l2.119-0.012l1.426-0.127l0.434-1.139
			l2.236-2.903l1.469,0.302l1.438-1.308l0.266,1.024l3.576,2.4l-0.438,0.583l-1.605-0.086l0.635,0.879l0.982,0.219l1.154-0.486
			l-0.025-1.394l0.516-0.255l-0.402-0.438l-2.385-1.326l-0.633-1.764h1.977l0.633,0.63l1.699,1.468l0.076,1.776l1.764,1.876
			l0.645-2.575l1.232-0.66l0.225,2.104l1.184,1.308l2.393-0.042c0.455,1.187,0.869,2.392,1.23,3.616l-0.248,0.237h-3.658
			l-2.215-1.648l-2.33,0.226v1.423h-0.742l-0.797-0.568l-4.039-1.027v-2.616l-5.125,0.394l-1.598,0.853h-2.029l-1.002-0.101
			l-2.461,1.376v2.581l-5.043,3.643l0.408,1.55h1.023l-0.266,1.48l-0.717,0.267l-0.041,3.869l4.373,4.963h1.889l0.125-0.303h3.402
			l0.977-0.905h1.941l1.055,1.06l2.889,0.308l-0.379,3.835l3.195,5.652l-1.682,3.227l0.119,1.516l1.338,1.326v3.646l1.734,2.356
			v3.036h1.504c-8.375,10.27-21.113,16.862-35.384,16.862c-25.162,0-45.635-20.479-45.635-45.629c0-6.333,1.308-12.37,3.641-17.854
			v2.593l1.899,0.908v3.614l1.817,3.104l1.48,0.231l0.19-1.063l-1.729-2.738l-0.343-2.619h1.024l0.432,2.69l2.522,3.679
			l-0.651,1.189l1.609,2.447l3.978,0.983v-0.637l1.586,0.222l-0.143,1.143l1.243,0.222l1.941,0.536l2.729,3.113l3.485,0.26
			l0.344,2.848l-2.392,1.669l-0.118,2.539l-0.343,1.558l3.445,4.32l0.272,1.48c0,0,1.243,0.343,1.396,0.343
			c0.148,0,2.806,2.013,2.806,2.013v7.813l0.946,0.261l-0.639,3.615l1.61,2.097l-0.296,3.574l2.107,3.694l2.705,2.361l2.705,0.059
			l0.272-0.881l-1.994-1.676l0.119-0.835l0.36-1.023l0.077-1.048l-1.355-0.041l-0.674-0.859l1.124-1.082l0.148-0.817l-1.255-0.367
			l0.077-0.757l1.788-0.273l2.71-1.302l0.9-1.669l2.854-3.64l-0.64-2.847l0.876-1.516l2.627,0.077l1.74-1.38l0.58-5.486l1.941-2.48
			l0.355-1.598l-1.787-0.58l-1.172-1.918l-4.02-0.047l-3.178-1.208l-0.147-2.272l-1.06-1.867l-2.889-0.042l-1.67-2.619l-1.468-0.717
			l-0.082,0.794l-2.688,0.159l-0.988-1.381l-2.811-0.572l-2.309,2.675l-3.646-0.633l-0.267-4.103l-2.657-0.456l1.065-2.012
			l-0.308-1.151l-3.486,2.335l-2.196-0.266l-0.78-1.717L120.244,140.395z M127.495,121.776l1.195-0.571l1.077,0.255l-0.367,1.45
			l-1.16,0.376L127.495,121.776z M133.828,125.189v0.941h-2.729l-1.023-0.293l0.249-0.648l1.319-0.544h1.788v0.544H133.828z
			 M135.083,126.497v0.912l-0.687,0.435L133.543,128c0,0,0-1.37,0-1.509L135.083,126.497L135.083,126.497z M134.313,126.136v-1.086
			l0.929,0.855L134.313,126.136z M134.74,128.317v0.885l-0.651,0.648h-1.445l0.225-0.995l0.687-0.063l0.135-0.343L134.74,128.317z
			 M131.135,126.497h1.509l-1.935,2.705l-0.799-0.433l0.166-1.139L131.135,126.497z M137.308,128.006v0.885h-1.445l-0.402-0.574
			v-0.826h0.119L137.308,128.006z M135.965,126.79l0.408-0.433l0.698,0.433l-0.563,0.458L135.965,126.79z"/>
	</g>
</g>
<text transform="matrix(1 0 0 1 47.0151 179.4287)" fill="#FFFFFF" font-family="'PTSans-Bold'" font-size="25">Группа до 10 дітей </text>
</svg>
