<?xml version="1.0" encoding="utf-8"?>
<!-- Generator: Adobe Illustrator 15.0.0, SVG Export Plug-In . SVG Version: 6.00 Build 0)  -->
<!DOCTYPE svg PUBLIC "-//W3C//DTD SVG 1.1//EN" "http://www.w3.org/Graphics/SVG/1.1/DTD/svg11.dtd">
<svg version="1.1" id="Слой_1" xmlns="http://www.w3.org/2000/svg" xmlns:xlink="http://www.w3.org/1999/xlink" x="0px" y="0px"
	 width="300px" height="300px" viewBox="0 0 300 300" enable-background="new 0 0 300 300" xml:space="preserve">
<circle fill="none" stroke="#FDC54C" stroke-width="2" stroke-miterlimit="10" cx="150" cy="150" r="145.53"/>
<g>
	<g>
		<circle fill="#FDC54C" cx="122.88" cy="68.361" r="19.763"/>
		<path fill="#FDC54C" d="M174.029,48.598c10.912,0,19.761,8.849,19.761,19.764c0,10.914-8.849,19.762-19.761,19.762
			c-10.917,0-19.764-8.848-19.764-19.762C154.266,57.446,163.112,48.598,174.029,48.598z"/>
		<path fill="#FDC54C" d="M191.333,199.326c-0.203,0.018-0.407,0.025-0.614,0.025c-4.222,0-7.659-3.436-7.659-7.662
			c0-23.93,15.013-33.887,15.652-34.3c0.143-0.094,0.283-0.169,0.427-0.241c0.006-0.004,0.012-0.01,0.018-0.012
			c-0.018-0.096-0.036-0.184-0.058-0.277c-3.294-2.795-5.397-6.951-5.397-11.598c0-2.237,0.497-4.351,1.367-6.267
			c-0.32-1.354-0.597-2.511-0.813-3.399v-14.779c1.714,3.562,3.04,8.03,3.819,13.786c2.761-2.814,6.603-4.564,10.849-4.564
			c1.397,0,2.743,0.204,4.027,0.558c-3.594-22.099-14.517-30.806-25.687-37.658c-0.394-0.24-0.808-0.424-1.216-0.586
			c-2.207-1.456-4.675-2.521-7.195-3.124c-0.016-0.003-0.033-0.005-0.049-0.008l-4.772,5.01l-4.925-4.957
			c-2.736,0.673-5.412,1.895-7.75,3.561c-0.069,0.04-0.143,0.06-0.21,0.102c-4.382,2.685-8.723,5.656-12.594,9.603
			c-3.861-4.113-8.314-7.332-12.922-10.159c-0.677-0.417-1.397-0.677-2.13-0.862c-1.797-1.006-3.735-1.765-5.697-2.246l-4.923,4.957
			l-4.773-5.01c-0.017,0.003-0.033,0.004-0.049,0.008c-2.519,0.603-4.987,1.668-7.192,3.123c-0.416,0.162-0.825,0.346-1.218,0.587
			c-11.713,7.185-22.408,17.066-24.342,38.819c2.085-1.093,4.447-1.72,6.959-1.72c3.076,0,5.936,0.932,8.32,2.521
			c0.367-3.829,1.072-7.077,2.068-9.865v11.531c2.868,2.742,4.666,6.594,4.666,10.867c0,3.832-1.46,7.32-3.828,9.979
			c0.087,0.26,0.165,0.519,0.267,0.768c-0.054,0.4-0.091,0.802-0.091,1.211v0.879c0.071,0.059,0.15,0.117,0.221,0.172
			c2.773,2.059,14.69,12.129,14.69,33.309c0,4.189-3.41,7.598-7.599,7.598c-1.603,0-3.087-0.494-4.318-1.342
			c-0.052,0.133-0.11,0.268-0.169,0.4l-0.003,36.818c0,0.68-0.087,1.336-0.231,1.973c1.65,1.688,3.942,2.736,6.483,2.736
			c5.008-0.002,9.069-4.059,9.069-9.068l-0.01-63.055c0.357,0.018,0.715,0.045,1.077,0.045c0.07,0,0.142-0.008,0.212-0.008
			l-0.003,63.018c0,5.01,4.061,9.068,9.069,9.068c5.007,0,9.068-4.059,9.068-9.064l0.003-73.022
			c0.115-0.222,0.226-0.438,0.334-0.665c0.113,0.006,0.224,0.034,0.336,0.034c0.038,0,0.075,0,0.11-0.002
			c2.272-0.034,4.292-1.054,5.677-2.642c0.49,0.439,1.041,0.813,1.637,1.118c-3.175,14.364-6.715,31.169-6.73,34.849
			c-0.016,3.018,5.421,5.602,13.091,7.227v33.104c0,5.006,4.06,9.064,9.068,9.064s9.067-4.059,9.067-9.068v-31.266
			c0.424,0.002,0.859,0.002,1.282-0.002l-0.003,31.268c0,5.01,4.061,9.066,9.067,9.068c5.01,0,9.068-4.059,9.068-9.064l0.003-15.113
			h-4.758L191.333,199.326z"/>
		<circle fill="#FDC54C" cx="93.189" cy="144.858" r="11.566"/>
		<path fill="#FDC54C" d="M111.903,195.291c2.272,0,4.113-1.838,4.113-4.113c0-19.818-11.024-28.871-13.396-30.59
			c-0.799-0.713-1.836-1.426-3.215-2.178c-1.054-0.59-2.184-1.032-3.334-1.316l-2.881,2.902l-2.796-2.938
			c-0.007,0.005-0.018,0.011-0.026,0.013c-1.799,0.426-3.539,1.275-5.013,2.436c-0.125,0.061-0.251,0.111-0.369,0.188
			c-0.565,0.365-13.851,9.182-13.851,30.91c0,2.271,1.84,4.113,4.114,4.113c2.269,0,4.11-1.842,4.11-4.113
			c0-4.939,0.825-8.982,1.991-12.279v14.354c0,1.205,0.231,2.334,0.646,3.369c-0.033,0.23-0.055,0.471-0.055,0.713l0.005,37.889
			c0,2.93,2.374,5.305,5.305,5.305s5.304-2.375,5.304-5.305v-31.795c0.208,0.016,0.42,0.029,0.632,0.029
			c0.04,0,0.082-0.002,0.124-0.006v31.773c0,2.932,2.373,5.303,5.305,5.303c2.931,0,5.306-2.371,5.306-5.303l0.003-37.627
			c0.694-1.287,1.1-2.746,1.1-4.346v-15.744c1.565,3.598,2.763,8.273,2.763,14.246C107.791,193.453,109.63,195.291,111.903,195.291z
			"/>
		<circle fill="#FDC54C" cx="209.079" cy="145.029" r="11.739"/>
		<path fill="#FDC54C" d="M218.646,160.994c-0.811-0.725-1.86-1.449-3.26-2.213c-1.071-0.598-2.219-1.047-3.385-1.33l-2.923,2.945
			l-2.836-2.978c-0.01,0.003-0.019,0.007-0.033,0.007c-1.824,0.436-3.587,1.299-5.084,2.477c-0.128,0.063-0.252,0.111-0.375,0.189
			c-0.572,0.367-14.056,9.32-14.056,31.369c0,2.307,1.865,4.174,4.173,4.174s4.176-1.867,4.176-4.174
			c0-5.012,0.834-9.115,2.018-12.459v8.564l-4.264,24.129h4.867l0.006,24.463c0,2.975,2.407,5.389,5.385,5.387
			c2.975,0,5.382-2.412,5.382-5.387v-24.465h0.764v24.465c0,2.975,2.411,5.385,5.385,5.385s5.385-2.41,5.385-5.385v-24.465h5.356
			l-4.233-23.926V177.58c1.586,3.654,2.804,8.398,2.804,14.457c0,2.305,1.866,4.174,4.176,4.174c2.305,0,4.17-1.869,4.17-4.174
			C232.243,171.924,221.058,162.738,218.646,160.994z"/>
	</g>
</g>
<text transform="matrix(1 0 0 1 76.9546 178.8564)"><tspan x="0" y="0" fill="#FFFFFF" font-family="'PTSans-Bold'" font-size="25">Ваші діти під </tspan><tspan x="-23.537" y="28" fill="#FFFFFF" font-family="'PTSans-Bold'" font-size="25">постійною увагою</tspan></text>
<circle fill="#F24841" cx="62.182" cy="32.13" r="19.442"/>
<text transform="matrix(1 0 0 1 53.6641 42.5449)" font-family="'PTSans-Bold'" font-size="30.5856">1</text>
</svg>
