<?xml version="1.0" encoding="utf-8"?>
<!-- Generator: Adobe Illustrator 15.0.0, SVG Export Plug-In . SVG Version: 6.00 Build 0)  -->
<!DOCTYPE svg PUBLIC "-//W3C//DTD SVG 1.1//EN" "http://www.w3.org/Graphics/SVG/1.1/DTD/svg11.dtd">
<svg version="1.1" id="Слой_1" xmlns="http://www.w3.org/2000/svg" xmlns:xlink="http://www.w3.org/1999/xlink" x="0px" y="0px"
	 width="250px" height="250px" viewBox="0 0 250 250" enable-background="new 0 0 250 250" xml:space="preserve">
<polygon fill="#FFFFFF" stroke="#FDC54E" stroke-width="5" stroke-miterlimit="10" points="234.037,188.131 125.428,250 
	16.824,188.131 16.824,64.397 125.428,2.53 234.037,64.397 "/>
<text transform="matrix(1 0 0 1 43.9634 153.2949)"><tspan x="0" y="0" font-family="'MyriadPro-Regular'" font-size="17">Індивідуальний підхід</tspan><tspan x="14.042" y="20.4" font-family="'MyriadPro-Regular'" font-size="17">від харчування до</tspan><tspan x="45.695" y="40.8" font-family="'MyriadPro-Regular'" font-size="17">навчання</tspan></text>
<g>
	<g id="icons_20_">
		<path fill="#010101" d="M147.162,33.872c-2.709,0-4.904,2.195-4.904,4.906v21.258c0,0.902-0.734,1.635-1.637,1.635
			c-0.9,0-1.635-0.733-1.635-1.635v-31.07c0-2.709-2.197-4.906-4.906-4.906s-4.904,2.196-4.904,4.906v27.8
			c0,0.901-0.734,1.635-1.637,1.635c-0.9,0-1.635-0.734-1.635-1.635v-31.07c-0.001-2.71-2.196-4.906-4.905-4.906
			c-2.711,0-4.906,2.196-4.906,4.906v31.07c0,0.901-0.732,1.635-1.635,1.635c-0.903,0-1.051-0.733-1.051-1.635V32.237
			c0-2.71-2.195-4.906-4.905-4.906s-4.906,2.197-4.906,4.906c0,0,0.046,18.013,0.046,19.857c0,1.844,0.598,2.59,0.893,2.979
			c3.688,4.858,7.17,9.441,7.661,10.077c2.79,3.609,3.048,2.015,9.994,3.673c0.004,0,0.009,0.003,0.014,0.003c0,0,0.001,0,0.002,0
			c0.002,0.001,0.002,0.001,0.002,0.001c0.441,0.101,0.876,0.227,1.3,0.374c3.427,1.176,11.251,4.072,11.251,4.072
			c1.475,0.526,2.27,2.051,1.775,3.413c-0.506,1.35-2.102,2.024-3.594,1.502c0,0-3.15-0.907-3.465-1.003
			c-0.316-0.096-1.174-0.259-0.42,0.715c0.754,0.974,10.107,13.077,10.107,13.077c0.727,0.939,0.553,2.287-0.385,3.011
			c-0.938,0.726-2.287,0.553-3.01-0.385l-6.566-8.492c-0.242-0.312-0.488-0.526-0.801-0.286c-0.313,0.243-0.369,0.691-0.129,1.005
			l8.316,10.757c0.725,0.938,0.553,2.286-0.387,3.012c-0.938,0.725-2.285,0.552-3.012-0.386l-8.315-10.758
			c-0.24-0.312-0.69-0.37-1.003-0.128c-0.311,0.241-0.37,0.691-0.129,1.004l7.439,9.625c0.727,0.938,0.553,2.287-0.383,3.011
			c-0.939,0.726-2.287,0.552-3.012-0.385l-8.315-10.757c-0.242-0.312-0.692-0.369-1.004-0.128c-0.312,0.241-0.371,0.691-0.129,1.004
			l5.689,7.36c0.726,0.938,0.552,2.287-0.386,3.012c-0.938,0.724-2.286,0.552-3.012-0.385c0,0-10.408-13.467-11.815-15.287
			c-0.027-0.033-0.054-0.069-0.081-0.106c-4.661-6.102-1.972-8.972-5.07-13.305l-0.403-0.54c-0.926-1.206-2.424-3.21-4.155-5.548
			l-2.13-2.844c-1.963-3.024-5.793-4.039-8.599-2.306c-2.796,1.772-3.49,5.638-1.553,8.653c0,0,10.097,16.167,14.647,23.085
			c0.563,0.859,1.171,1.692,1.829,2.497l0.001,0.001c0.001,0,0.002,0.002,0.002,0.003c0.008,0.008,0.015,0.017,0.021,0.025
			c5.46,7.015,9.067,13.222,9.067,19.342c0,2.08-0.032,6.733-0.089,9.569c-0.033,1.694-0.414,3.699,2.596,3.699s23.136,0,25.134,0
			c2.559,0,2.496-1.917,2.518-2.76c0.258-10.393,0.066-2.627,0.066-10.509c0-13.088,9.344-14.111,9.449-32.122
			c0.002-0.105,0.004-0.208,0.004-0.305c0-5.257,0-44.152,0-44.152C152.068,36.067,149.871,33.872,147.162,33.872z"/>
	</g>
</g>
</svg>
