<?xml version="1.0" encoding="utf-8"?>
<!-- Generator: Adobe Illustrator 15.0.0, SVG Export Plug-In . SVG Version: 6.00 Build 0)  -->
<!DOCTYPE svg PUBLIC "-//W3C//DTD SVG 1.1//EN" "http://www.w3.org/Graphics/SVG/1.1/DTD/svg11.dtd">
<svg version="1.1" id="Слой_1" xmlns="http://www.w3.org/2000/svg" xmlns:xlink="http://www.w3.org/1999/xlink" x="0px" y="0px"
	 width="250px" height="250px" viewBox="0 0 250 250" enable-background="new 0 0 250 250" xml:space="preserve">
<polygon fill="#FFFFFF" stroke="#FDC54E" stroke-width="5" stroke-miterlimit="10" points="234.037,188.131 125.428,250 
	16.824,188.131 16.824,64.397 125.428,2.53 234.037,64.397 "/>
<text transform="matrix(1 0 0 1 57.4951 153.2949)"><tspan x="0" y="0" font-family="'MyriadPro-Regular'" font-size="17">Затишна домашня</tspan><tspan x="26.987" y="20.4" font-family="'MyriadPro-Regular'" font-size="17">атмосфера</tspan></text>
<g>
	<g>
		<circle fill="#010101" cx="138.576" cy="51.834" r="8.623"/>
		<circle fill="#010101" cx="160.893" cy="51.834" r="8.623"/>
		<path fill="#010101" d="M168.443,108.978c-0.09,0.006-0.178,0.01-0.268,0.01c-1.844,0-3.344-1.499-3.344-3.343
			c0-10.44,6.551-14.785,6.83-14.964c0.063-0.04,0.125-0.075,0.188-0.105c0.002-0.001,0.004-0.004,0.008-0.006
			c-0.008-0.039-0.018-0.078-0.025-0.119c-1.436-1.221-2.354-3.034-2.354-5.062c0-0.977,0.217-1.9,0.598-2.735
			c-0.139-0.592-0.262-1.097-0.355-1.483v-6.448c0.748,1.554,1.328,3.504,1.668,6.014c1.205-1.227,2.881-1.991,4.732-1.991
			c0.609,0,1.197,0.089,1.76,0.244c-1.568-9.642-6.336-13.442-11.211-16.431c-0.172-0.105-0.35-0.186-0.529-0.256
			c-0.963-0.635-2.039-1.1-3.141-1.363c-0.006-0.001-0.014-0.002-0.02-0.003l-2.082,2.186l-2.15-2.163
			c-1.193,0.293-2.361,0.827-3.383,1.556c-0.027,0.017-0.061,0.024-0.092,0.043c-1.91,1.171-3.803,2.468-5.492,4.19
			c-1.688-1.795-3.629-3.2-5.641-4.433c-0.293-0.181-0.609-0.294-0.93-0.375c-0.783-0.44-1.629-0.771-2.484-0.982l-2.15,2.163
			l-2.082-2.186c-0.008,0.001-0.016,0.002-0.021,0.003c-1.1,0.264-2.176,0.728-3.137,1.362c-0.182,0.071-0.361,0.151-0.531,0.257
			c-5.111,3.134-9.778,7.447-10.622,16.938c0.909-0.478,1.94-0.751,3.036-0.751c1.344,0,2.59,0.406,3.631,1.1
			c0.16-1.671,0.469-3.087,0.902-4.305v5.032c1.252,1.197,2.037,2.877,2.037,4.741c0,1.672-0.637,3.195-1.672,4.356
			c0.039,0.112,0.072,0.224,0.117,0.333c-0.023,0.174-0.039,0.349-0.039,0.529v0.382c0.031,0.024,0.064,0.051,0.098,0.076
			c1.209,0.898,6.408,5.292,6.408,14.533c0,1.828-1.486,3.317-3.314,3.317c-0.699,0-1.346-0.217-1.883-0.587
			c-0.023,0.058-0.049,0.117-0.074,0.174l-0.002,16.065c0,0.297-0.037,0.584-0.1,0.861c0.719,0.736,1.721,1.192,2.828,1.192
			c2.188,0,3.957-1.771,3.957-3.957l-0.006-27.513c0.156,0.009,0.313,0.019,0.471,0.019c0.029,0,0.063-0.002,0.094-0.003
			l-0.002,27.497c0,2.185,1.771,3.957,3.959,3.957c2.184,0,3.957-1.772,3.957-3.957V90.727c0.051-0.096,0.098-0.193,0.145-0.29
			c0.051,0.002,0.098,0.015,0.146,0.015c0.018,0,0.031,0,0.049,0c0.99-0.014,1.873-0.459,2.477-1.152
			c0.213,0.191,0.453,0.355,0.715,0.488c-1.387,6.266-2.93,13.6-2.938,15.207c-0.006,1.315,2.367,2.443,5.715,3.154v14.443
			c0,2.185,1.771,3.955,3.957,3.955s3.957-1.771,3.957-3.957v-13.642c0.184,0,0.373,0,0.561-0.001l-0.002,13.644
			c0,2.185,1.77,3.955,3.957,3.957c2.186,0,3.955-1.771,3.955-3.957l0.002-6.595h-2.076L168.443,108.978z"/>
		<circle fill="#010101" cx="125.449" cy="85.212" r="5.046"/>
		<path fill="#010101" d="M133.615,107.217c0.99,0,1.793-0.802,1.793-1.794c0-8.648-4.809-12.598-5.844-13.346
			c-0.348-0.312-0.799-0.623-1.402-0.952c-0.459-0.256-0.951-0.449-1.453-0.573l-1.259,1.266l-1.22-1.28
			c-0.003,0-0.007,0.002-0.011,0.003c-0.786,0.188-1.543,0.559-2.188,1.064c-0.055,0.027-0.109,0.05-0.162,0.083
			c-0.246,0.159-6.042,4.006-6.042,13.485c0,0.991,0.802,1.795,1.794,1.795c0.99,0,1.794-0.803,1.794-1.795
			c0-2.153,0.36-3.919,0.87-5.357v6.263c0,0.525,0.101,1.02,0.283,1.471c-0.015,0.102-0.024,0.206-0.024,0.31l0.002,16.534
			c0,1.278,1.038,2.315,2.316,2.313c1.277,0,2.313-1.037,2.313-2.313V110.52c0.092,0.004,0.183,0.011,0.275,0.011
			c0.018,0,0.036,0,0.055-0.002v13.865c0,1.278,1.035,2.313,2.314,2.313s2.316-1.037,2.316-2.313l0.002-16.419
			c0.301-0.562,0.48-1.199,0.48-1.895v-6.872c0.684,1.572,1.205,3.61,1.205,6.217C131.822,106.413,132.623,107.217,133.615,107.217z
			"/>
		<circle fill="#010101" cx="176.355" cy="85.287" r="5.121"/>
		<path fill="#010101" d="M180.531,92.252c-0.354-0.316-0.813-0.631-1.424-0.966c-0.467-0.259-0.969-0.456-1.477-0.582l-1.275,1.286
			l-1.236-1.299c-0.004,0-0.01,0.002-0.014,0.002c-0.795,0.191-1.566,0.567-2.219,1.082c-0.057,0.025-0.111,0.047-0.164,0.082
			c-0.252,0.16-6.133,4.064-6.133,13.687c0,1.007,0.814,1.821,1.82,1.821s1.82-0.814,1.82-1.821c0-2.187,0.367-3.977,0.881-5.437
			v3.738l-1.861,10.528h2.123l0.004,10.676c0,1.301,1.051,2.351,2.348,2.351c1.299,0,2.348-1.051,2.348-2.351v-10.676h0.334
			l-0.002,10.676c0,1.301,1.053,2.351,2.35,2.351s2.35-1.051,2.35-2.351v-10.676h2.338l-1.848-10.438v-4.444
			c0.691,1.594,1.223,3.665,1.223,6.308c0,1.005,0.813,1.822,1.822,1.822c1.004,0,1.818-0.814,1.818-1.822
			C186.463,97.022,181.58,93.013,180.531,92.252z"/>
		<path fill="#010101" d="M117.651,124.976l-0.002-14.555c-0.017,0-0.033,0-0.049,0c-2.573,0-4.666-2.093-4.666-4.666
			c0-6.09,2.081-10.19,4.04-12.707h-8.578v27.458H93.032V68.533h29.826c2.206-3.477,5.129-5.776,8.018-7.588
			c-2.338-2.105-3.818-5.143-3.818-8.529c0-6.337,5.156-11.493,11.494-11.493c1.939,0,3.764,0.49,5.367,1.343l-20.604-16.061
			c-0.803-0.845-1.918-1.323-3.083-1.323c-1.166,0-2.28,0.479-3.083,1.323L90.693,48.433V36.427l-11.381-0.019v20.105l-6.297,6.298
			c-2.248,2.248-2.248,5.89,0,8.136c2.246,2.248,5.888,2.248,8.135,0l3.029-3.028v57.011c0,2.444,1.983,4.425,4.427,4.425h31.472
			C118.622,128.438,117.651,126.819,117.651,124.976z"/>
	</g>
</g>
</svg>
