<?xml version="1.0" encoding="utf-8"?>
<!-- Generator: Adobe Illustrator 15.0.0, SVG Export Plug-In . SVG Version: 6.00 Build 0)  -->
<!DOCTYPE svg PUBLIC "-//W3C//DTD SVG 1.1//EN" "http://www.w3.org/Graphics/SVG/1.1/DTD/svg11.dtd">
<svg version="1.1" id="Слой_1" xmlns="http://www.w3.org/2000/svg" xmlns:xlink="http://www.w3.org/1999/xlink" x="0px" y="0px"
	 width="300px" height="300px" viewBox="0 0 300 300" enable-background="new 0 0 300 300" xml:space="preserve">
<polygon fill="#FFFFFF" stroke="#FDC54C" stroke-width="5" stroke-miterlimit="10" points="280.081,224.999 150.174,299 
	20.271,224.999 20.271,77 150.174,3 280.081,77 "/>
<g>
	<g>
		<path d="M115.684,85.791c9.802,0,17.744-7.942,17.744-17.76c0-6.12,2.152-11.721-2.573-14.9
			c-2.838-1.93-15.284-2.844-18.961-2.844c-4.374,0-10.056,3.568-13.153,6.196c-3.845,3.249-0.812,6.109-0.812,11.543
			C97.929,77.849,105.86,85.791,115.684,85.791z M103.314,66.29c3.261-0.589,5.478,0.486,5.478,0.486l5.45-2.655
			c0,0-2.773,4.006-0.287,2.655c5.547-1.86,11.754-1.087,14.91-0.465c0.108,0.692,0.212,1.4,0.212,2.135
			c0,7.305-5.802,13.214-13.004,13.214c-7.169,0-12.976-5.909-12.976-13.214C103.098,67.712,103.201,67.003,103.314,66.29z"/>
		<path d="M202.303,65.538c-0.082-1.011-0.163-2.022-0.385-2.995c-0.702-6.223-6.276-18.869-22.258-18.49
			c-13.776,0.324-16.782,10.694-17.508,17.009c-0.486,1.552-0.8,3.174-0.907,4.861c-17.912,3.125-15.944,21.307-5.001,21.621
			c-1.043-9.5,3.486-15.198,5.229-17.031c1.61,9.802,10.077,17.339,20.328,17.339c9.727,0,17.842-6.769,20.036-15.825
			c1.682,2.957,4.499,9.013,3.812,15.522C222.885,87.397,214.402,67.695,202.303,65.538z M181.801,82.007
			c-8.051,0-14.608-6.494-14.793-14.511c2.941-1.071,5.126-6.164,5.126-6.164s1.741,0.6,1.741,6.353
			c3.049,1.06,8.348-8.937,8.348-8.937v7.877c3.362,0.919,13.959-0.297,13.959-0.297l0.39,0.33c0.012,0.168,0.055,0.341,0.055,0.508
			C196.636,75.351,189.991,82.007,181.801,82.007z"/>
		<polygon points="186.12,88.381 177.399,88.381 170.123,88.381 148.799,114.073 128.168,88.705 104.709,88.705 80.142,115.679 
			85.289,120.988 102.876,105.979 102.876,135.088 106.407,135.088 106.407,157.217 104.163,157.217 104.163,159.813 
			114.376,159.813 114.376,157.217 114.376,135.088 118.204,135.088 118.204,157.217 118.204,159.813 128.395,159.813 
			128.395,157.217 126.157,157.217 126.157,135.088 130.438,135.088 130.438,106.525 144.501,120.96 150.248,119.544 
			153.428,120.344 169.36,102.113 170.263,109.336 155.471,134.758 172.534,134.758 172.534,156.893 170.296,156.893 
			170.296,159.466 180.498,159.466 180.498,156.893 180.509,156.893 180.509,134.758 184.32,134.758 184.32,156.893 184.32,159.466 
			194.533,159.466 194.533,156.893 192.289,156.893 192.289,134.758 205.514,134.758 192.484,109.336 193.197,100.448 
			205.648,117.133 213.899,115.078 194.154,88.381 		"/>
	</g>
</g>
<text transform="matrix(0.8942 0 0 1 23.0315 188.2324)"><tspan x="0" y="0" font-family="'MyriadPro-Regular'" font-size="27.8745">Дитсадок  розраховано </tspan><tspan x="86.591" y="33.449" font-family="'MyriadPro-Regular'" font-size="27.8745">на 9 дітей</tspan></text>
</svg>
