<?xml version="1.0" encoding="utf-8"?>
<!-- Generator: Adobe Illustrator 15.0.0, SVG Export Plug-In . SVG Version: 6.00 Build 0)  -->
<!DOCTYPE svg PUBLIC "-//W3C//DTD SVG 1.1//EN" "http://www.w3.org/Graphics/SVG/1.1/DTD/svg11.dtd">
<svg version="1.1" id="Слой_1" xmlns="http://www.w3.org/2000/svg" xmlns:xlink="http://www.w3.org/1999/xlink" x="0px" y="0px"
	 width="250px" height="250px" viewBox="0 0 250 250" enable-background="new 0 0 250 250" xml:space="preserve">
<polygon fill="#FFFFFF" stroke="#FDC54E" stroke-width="5" stroke-miterlimit="10" points="234.037,188.131 125.428,250 
	16.824,188.131 16.824,64.397 125.428,2.53 234.037,64.397 "/>
<text transform="matrix(1 0 0 1 39.7559 153.2949)"><tspan x="0" y="0" font-family="'MyriadPro-Regular'" font-size="17">Дитсадок розраховано</tspan><tspan x="49.206" y="20.4" font-family="'MyriadPro-Regular'" font-size="17">на 9 дітей</tspan></text>
<g>
	<g>
		<path fill="#010101" d="M98.6,66.369c8.25,0,14.935-6.685,14.935-14.949c0-5.151,1.812-9.866-2.166-12.542
			c-2.388-1.624-12.865-2.394-15.959-2.394c-3.682,0-8.464,3.003-11.071,5.215c-3.236,2.735-0.684,5.142-0.684,9.716
			C83.655,59.684,90.331,66.369,98.6,66.369z M88.187,49.955c2.745-0.496,4.611,0.409,4.611,0.409l4.587-2.234
			c0,0-2.334,3.372-0.241,2.234c4.669-1.565,9.893-0.915,12.55-0.391c0.091,0.582,0.178,1.178,0.178,1.796
			c0,6.149-4.884,11.123-10.946,11.123c-6.034,0-10.922-4.974-10.922-11.123C88.006,51.152,88.093,50.555,88.187,49.955z"/>
		<path fill="#010101" d="M171.509,49.322c-0.068-0.852-0.138-1.702-0.323-2.521c-0.591-5.238-5.283-15.883-18.735-15.563
			c-11.596,0.272-14.125,9.001-14.737,14.317c-0.408,1.307-0.673,2.672-0.763,4.092c-15.078,2.63-13.421,17.935-4.21,18.199
			c-0.878-7.996,2.935-12.792,4.4-14.335c1.356,8.25,8.482,14.595,17.111,14.595c8.188,0,15.019-5.698,16.864-13.321
			c1.416,2.489,3.788,7.587,3.209,13.065C188.834,67.721,181.692,51.137,171.509,49.322z M154.252,63.184
			c-6.776,0-12.296-5.466-12.451-12.214c2.476-0.901,4.314-5.188,4.314-5.188s1.465,0.505,1.465,5.348
			c2.567,0.893,7.027-7.522,7.027-7.522v6.63c2.83,0.773,11.75-0.25,11.75-0.25l0.327,0.278c0.01,0.142,0.047,0.287,0.047,0.427
			C166.739,57.582,161.146,63.184,154.252,63.184z"/>
		<polygon fill="#010101" points="157.888,68.549 150.547,68.549 144.423,68.549 126.474,90.175 109.108,68.822 89.362,68.822 
			68.683,91.527 73.016,95.995 87.819,83.362 87.819,107.864 90.792,107.864 90.792,126.49 88.902,126.49 88.902,128.675 
			97.499,128.675 97.499,126.49 97.499,107.864 100.721,107.864 100.721,126.49 100.721,128.675 109.299,128.675 109.299,126.49 
			107.416,126.49 107.416,107.864 111.019,107.864 111.019,83.821 122.855,95.972 127.693,94.78 130.37,95.453 143.779,80.108 
			144.54,86.188 132.09,107.586 146.452,107.586 146.452,126.217 144.567,126.217 144.567,128.383 153.155,128.383 153.155,126.217 
			153.165,126.217 153.165,107.586 156.372,107.586 156.372,126.217 156.372,128.383 164.969,128.383 164.969,126.217 
			163.08,126.217 163.08,107.586 174.211,107.586 163.244,86.188 163.844,78.706 174.324,92.75 181.27,91.021 164.649,68.549 		"/>
	</g>
</g>
</svg>
