<?xml version="1.0" encoding="utf-8"?>
<!-- Generator: Adobe Illustrator 15.0.0, SVG Export Plug-In . SVG Version: 6.00 Build 0)  -->
<!DOCTYPE svg PUBLIC "-//W3C//DTD SVG 1.1//EN" "http://www.w3.org/Graphics/SVG/1.1/DTD/svg11.dtd">
<svg version="1.1" id="Слой_1" xmlns="http://www.w3.org/2000/svg" xmlns:xlink="http://www.w3.org/1999/xlink" x="0px" y="0px"
	 width="300px" height="300px" viewBox="0 0 300 300" enable-background="new 0 0 300 300" xml:space="preserve">
<circle fill="none" stroke="#FDC54C" stroke-width="2" stroke-miterlimit="10" cx="150" cy="150" r="145.53"/>
<circle fill="#F24841" cx="62.182" cy="32.13" r="19.442"/>
<text transform="matrix(1 0 0 1 53.6641 42.5449)" font-family="'PTSans-Bold'" font-size="30.5856">1</text>
<g>
	<g>
		<polygon fill="#FDC54C" points="81.528,180.481 62.698,233.822 96.824,222.436 116.234,252.724 135.298,198.728 117.187,182.945 
					"/>
		<polygon fill="#FDC54C" points="210.911,180.481 175.256,182.945 157.139,198.728 176.201,252.724 195.608,222.436 
			229.745,233.822 		"/>
		<path fill="#FDC54C" d="M202.251,168.885l2.207-31.916l21.007-24.119l-21.007-24.123l-2.207-31.916l-31.902-2.211l-24.122-21.007
			l-24.133,21.007l-31.905,2.211l-2.214,31.922l-20.997,24.122l20.997,24.119l2.214,31.909l31.912,2.207l24.133,20.986
			l24.122-20.986L202.251,168.885z M145.805,156.814c-24.511,0-44.391-19.873-44.391-44.376c0-24.507,19.873-44.394,44.391-44.394
			c24.517,0,44.39,19.88,44.39,44.394C190.194,136.949,170.315,156.814,145.805,156.814z"/>
		<polygon fill="#FDC54C" points="131.122,93.669 133.029,102.4 142.48,97.955 142.592,97.955 142.592,137.016 153.864,137.016 
			153.864,87.489 144.222,87.489 		"/>
	</g>
</g>
<text transform="matrix(1 0 0 1 26.4229 178.8564)"><tspan x="0" y="0" fill="#FFFFFF" font-family="'PTSans-Bold'" font-size="25">Досвідчені вихователі </tspan><tspan x="24.825" y="28" fill="#FFFFFF" font-family="'PTSans-Bold'" font-size="25">(12 років успішної</tspan><tspan x="32.05" y="56" fill="#FFFFFF" font-family="'PTSans-Bold'" font-size="25"> роботи з дітьми)</tspan></text>
</svg>
