<?xml version="1.0" encoding="utf-8"?>
<!-- Generator: Adobe Illustrator 15.0.0, SVG Export Plug-In . SVG Version: 6.00 Build 0)  -->
<!DOCTYPE svg PUBLIC "-//W3C//DTD SVG 1.1//EN" "http://www.w3.org/Graphics/SVG/1.1/DTD/svg11.dtd">
<svg version="1.1" id="Слой_1" xmlns="http://www.w3.org/2000/svg" xmlns:xlink="http://www.w3.org/1999/xlink" x="0px" y="0px"
	 width="250px" height="250px" viewBox="0 0 250 250" enable-background="new 0 0 250 250" xml:space="preserve">
<polygon fill="#FFFFFF" stroke="#FDC54E" stroke-width="5" stroke-miterlimit="10" points="234.037,188.131 125.428,250 
	16.824,188.131 16.824,64.397 125.428,2.53 234.037,64.397 "/>
<text transform="matrix(1 0 0 1 61.7026 153.2949)"><tspan x="0" y="0" font-family="'MyriadPro-Regular'" font-size="17">Доступні ціни від</tspan><tspan x="16.779" y="20.4" font-family="'MyriadPro-Regular'" font-size="17">1800 грн/міс</tspan></text>
<g>
	<g>
		<path fill="#010101" d="M154.594,97.564c2.09-4.244,2.227-9.36-1.393-12.664c1.637-4.808,0.289-10.841-4.566-12.625
			c0.863-2.961,1.092-6.292-0.479-8.953c-1.418-2.402-4.307-3.028-6.92-2.96c2.84-6.134,7.139-13.79,12.805-19.297l0.797-0.773
			l-0.67-0.886c-0.457-0.605-11.377-14.794-25.256-10.499l-0.959,0.297l0.076,0.999c0.018,0.253,1.805,24.851-3.394,35.822
			c-0.469,0.251-0.939,0.503-1.402,0.754c-0.758-2.348-1.689-4.713-2.802-6.979c-2.263-5.242-5.765-12.153-10.502-18.074
			c2.235-1.964,1.095-5.19,0.25-6.89c2.966-2.579,7.345-5.485,12.399-6.014c0.498,1.388,1.656,3.848,3.73,4.559
			c-0.08-1.831-0.16-2.951-0.164-3.003l-0.152-1.997l1.914-0.593c0.742-0.23,1.494-0.4,2.25-0.54l-0.785-0.242
			c-13.88-4.295-24.797,9.893-25.256,10.499l-0.669,0.886l0.795,0.773c6.036,5.869,10.524,14.178,13.349,20.487
			c-8.463,2.898-11.547,10.207-14.268,16.656c-1.889,4.48-3.543,8.39-6.606,9.885l-0.102-0.31l-0.945-2.902l-13.731,4.473
			L95.148,128l13.731-4.474l-0.795-2.438c12.452-3.613,25.418-5.017,38.014-8.019c3.869-0.922,7.889-1.833,10.025-5.454
			C157.939,104.542,156.615,100.347,154.594,97.564z M89.415,93.98l-1.307-4.012l4.01-1.306l1.308,4.011L89.415,93.98z
			 M130.256,53.009c0.367,1.531,1.65,3.041,3.523,3.908c2.814,1.304,5.885,0.663,6.855-1.436c0.973-2.097-0.521-4.854-3.338-6.159
			c-2.789-1.29-5.82-0.671-6.824,1.377c0.463-5.674,0.445-11.271,0.328-15.214c2.826-0.007,4.318-3.13,4.904-4.762
			c5.053,0.528,9.434,3.436,12.4,6.014c-0.846,1.701-1.986,4.925,0.248,6.89c-4.438,5.549-7.789,11.962-10.057,17.061
			c-3.521,0.622-6.979,1.998-10.289,3.608C129.121,60.973,129.828,57.03,130.256,53.009z M117.776,60.063
			c-0.007,0.009-0.013,0.018-0.02,0.026l-0.095-0.279C117.7,59.894,117.739,59.981,117.776,60.063z M150.721,106.597
			c-3.275,2.028-8.01,2.59-11.703,3.338c-10.471,2.122-21.943,3.515-32.215,6.504l-8.534-25.538
			c4.761-1.984,7.646-7.543,9.72-12.458c2.339-5.547,4.766-11.267,10.826-13.564c0.756,1.833,1.26,3.58,1.866,5.714
			c0.324,1.135,1.626,1.399,2.552,0.892c4.892-2.672,10.193-5.558,15.769-6.519c0.041,0.014,0.082,0.022,0.119,0.039
			c0.012-0.021,0.021-0.045,0.029-0.064c0.094-0.016,0.186-0.036,0.279-0.049c1.688-0.259,4.426-0.432,5.285,1.471
			c0.643,1.423,0.416,3.119,0.115,4.597c-0.18,0.868-0.6,2.175-0.686,2.387c-0.377,0.925-0.016,2.293,1.154,2.433
			c4.475,0.53,5.115,5.611,3.43,9.078c-0.309,0.629-0.238,1.6,0.383,2.041c3.543,2.5,2.957,6.465,0.986,9.845
			c-0.27,0.465-0.268,1.284,0.1,1.708C152.137,100.694,153.949,104.597,150.721,106.597z"/>
		<path fill="#010101" d="M120.987,47.422c-2.815,1.305-4.312,4.063-3.338,6.159c0.97,2.098,4.04,2.74,6.856,1.436
			c0.428-0.197,0.82-0.433,1.184-0.691c0.291-2.318,0.478-4.708,0.597-7.042C124.877,46.551,122.877,46.546,120.987,47.422z"/>
	</g>
</g>
</svg>
