<?xml version="1.0" encoding="utf-8"?>
<!-- Generator: Adobe Illustrator 15.0.0, SVG Export Plug-In . SVG Version: 6.00 Build 0)  -->
<!DOCTYPE svg PUBLIC "-//W3C//DTD SVG 1.1//EN" "http://www.w3.org/Graphics/SVG/1.1/DTD/svg11.dtd">
<svg version="1.1" id="Слой_1" xmlns="http://www.w3.org/2000/svg" xmlns:xlink="http://www.w3.org/1999/xlink" x="0px" y="0px"
	 width="300px" height="300px" viewBox="0 0 300 300" enable-background="new 0 0 300 300" xml:space="preserve">
<circle fill="none" stroke="#FDC54C" stroke-width="2" stroke-miterlimit="10" cx="150" cy="150" r="145.53"/>
<circle fill="#F24841" cx="62.182" cy="32.13" r="19.442"/>
<text transform="matrix(1 0 0 1 53.6641 42.5449)" font-family="'PTSans-Bold'" font-size="30.5856">1</text>
<g>
	<path fill="#FDC54C" d="M249.734,188.979L249.734,188.979v-43.424l-5.712-34.24h-54.41l17.677,13.221v20.945l-11.411-8.441v4.156
		h-3.388v47.772h-3.527v-52.348h3.387v-6.287h-5.231l-39.662-29.19l-38.306,29.897h-4.643v6.3h3.816v51.632h-3.721v-47.059h-3.816
		v-2.635l-8.11,6.735v-21.37l16.247-13.322H52.647l-5.711,34.24v43.418h-2.782v16.408H256v-16.408H249.734z M72.032,180.506H53.105
		v-10.359h18.926V180.506z M72.032,163.961H53.105v-10.348h18.926V163.961z M79.881,180.506v-10.359h18.921v10.359H79.881z
		 M79.886,163.961v-10.348h18.921v10.348H79.886z M148.18,113.972c4.145,0,7.498,3.365,7.498,7.499c0,4.134-3.354,7.498-7.498,7.498
		c-4.139,0-7.499-3.364-7.499-7.498C140.681,117.337,144.041,113.972,148.18,113.972z M178.647,188.967h-4.155v-47.264h-53.761
		v47.264h-3.767v-51.634h3.619V134.9h55.711v1.719h2.353V188.967z M214.85,179.432h-18.921v-10.359h18.921V179.432z M214.85,162.881
		h-18.921v-10.348h18.921V162.881z M241.625,179.432h-18.92v-10.359h18.92V179.432z M241.625,162.881h-18.92v-10.348h18.92V162.881z
		 M147.608,83.419h-1.153V52.516h2.414v0.588c2.647,1.153,9.053,3.342,12.662-0.572c4.619-5.003,12.711,0,12.711,0v14.262
		c0,0-6.548-5.388-12.711,0c-4.688,4.095-10.259,1.963-12.662,0.701v15.918v0.006h-1.25l56.141,41.987v11.938l-56.785-41.999
		l-50.582,41.999v-11.938L147.608,83.419z"/>
</g>
<text transform="matrix(1 0 0 1 60.8726 178.8564)"><tspan x="0" y="0" fill="#FFFFFF" font-family="'PTSans-Bold'" font-size="25">Підготовка дітей</tspan><tspan x="-10.925" y="28" fill="#FFFFFF" font-family="'PTSans-Bold'" font-size="25"> до вступу у кращі </tspan><tspan x="17.187" y="56" fill="#FFFFFF" font-family="'PTSans-Bold'" font-size="25">школи Киева </tspan></text>
</svg>
