<?xml version="1.0" encoding="utf-8"?>
<!-- Generator: Adobe Illustrator 15.0.0, SVG Export Plug-In . SVG Version: 6.00 Build 0)  -->
<!DOCTYPE svg PUBLIC "-//W3C//DTD SVG 1.1//EN" "http://www.w3.org/Graphics/SVG/1.1/DTD/svg11.dtd">
<svg version="1.1" id="Слой_1" xmlns="http://www.w3.org/2000/svg" xmlns:xlink="http://www.w3.org/1999/xlink" x="0px" y="0px"
	 width="300px" height="300px" viewBox="0 0 300 300" enable-background="new 0 0 300 300" xml:space="preserve">
<circle fill="none" stroke="#FDC54C" stroke-width="2" stroke-miterlimit="10" cx="150" cy="150" r="145.53"/>
<circle fill="#F24841" cx="62.182" cy="32.13" r="19.442"/>
<text transform="matrix(1 0 0 1 53.6641 42.5449)" font-family="'PTSans-Bold'" font-size="30.5856">1</text>
<g>
	<path fill="#FDC54C" d="M215.604,79.174c-36.853-36.853-96.804-36.853-133.648-0.009c-36.85,36.847-36.846,96.8,0.003,133.654
		c36.84,36.842,96.792,36.842,133.641-0.008C252.446,175.965,252.443,116.014,215.604,79.174z M205.292,202.508
		c-31.162,31.16-81.865,31.162-113.028,0.002c-31.168-31.166-31.165-81.875,0-113.037c31.161-31.159,81.864-31.163,113.031,0.003
		C236.457,120.638,236.453,171.348,205.292,202.508z M113.529,120.415c0-6.098,4.944-11.045,11.044-11.045
		c6.096,0,11.044,4.945,11.044,11.045c0,6.102-4.948,11.048-11.044,11.048C118.474,131.463,113.529,126.517,113.529,120.415z
		 M163.61,120.415c0-6.098,4.95-11.045,11.05-11.045c6.095,0,11.043,4.945,11.043,11.045c0,6.102-4.945,11.048-11.043,11.048
		C168.561,131.463,163.61,126.517,163.61,120.415z M189.724,165.652c-6.846,15.83-22.876,26.059-40.838,26.059
		c-18.348,0-34.475-10.279-41.083-26.189c-1.132-2.723,0.16-5.852,2.886-6.982c0.669-0.279,1.365-0.41,2.049-0.41
		c2.094,0,4.083,1.238,4.935,3.295c4.947,11.912,17.199,19.604,31.213,19.604c13.696,0,25.878-7.699,31.027-19.613
		c1.173-2.711,4.318-3.961,7.027-2.785C189.646,159.803,190.896,162.947,189.724,165.652z"/>
	<text transform="matrix(1 0 0 1 75.5649 179.4287)"><tspan x="0" y="0" fill="#FFFFFF" font-family="'PTSans-Bold'" font-size="25">Доступні ціни </tspan><tspan x="-16.087" y="28" fill="#FFFFFF" font-family="'PTSans-Bold'" font-size="25">від 1800 грн/міс</tspan><tspan x="167.535" y="28" fill="#2E3191" font-family="'PTSans-Bold'" font-size="25"> </tspan></text>
</g>
</svg>
