<?xml version="1.0" encoding="utf-8"?>
<!-- Generator: Adobe Illustrator 15.0.0, SVG Export Plug-In . SVG Version: 6.00 Build 0)  -->
<!DOCTYPE svg PUBLIC "-//W3C//DTD SVG 1.1//EN" "http://www.w3.org/Graphics/SVG/1.1/DTD/svg11.dtd">
<svg version="1.1" id="Слой_1" xmlns="http://www.w3.org/2000/svg" xmlns:xlink="http://www.w3.org/1999/xlink" x="0px" y="0px"
	 width="250px" height="250px" viewBox="0 0 250 250" enable-background="new 0 0 250 250" xml:space="preserve">
<polygon fill="#FFFFFF" stroke="#FDC54E" stroke-width="5" stroke-miterlimit="10" points="234.037,188.131 125.428,250 
	16.824,188.131 16.824,64.397 125.428,2.53 234.037,64.397 "/>
<g>
	<path fill="#010101" d="M173.216,47.777h-18.152C147.8,37.501,135.808,23,125.977,23c-9.841,0-21.829,14.498-29.095,24.777H78.741
		c-4.183,0-7.574,3.393-7.574,7.575v66.13c0,4.183,3.391,7.575,7.574,7.575h94.475c4.183,0,7.575-3.391,7.575-7.575v-66.13
		C180.79,51.163,177.397,47.777,173.216,47.777z M111.342,80.948c0-8.093,6.583-14.679,14.676-14.679
		c8.098,0,14.68,6.584,14.68,14.679c0,4.048-1.651,7.72-4.308,10.373l6.73,12.431c0.183,0.251,0.301,0.561,0.301,0.894
		c0,0.809-0.66,1.469-1.471,1.469c0,0-0.012,0-0.022,0c-0.18,0-0.367-0.04-0.547-0.108l-5.134-2.057l-1.075,5.425
		c-0.127,0.606-0.611,1.072-1.221,1.167c-0.074,0.011-0.15,0.017-0.225,0.017c-0.533,0-1.028-0.286-1.292-0.769l-6.468-11.939
		l-6.469,11.937c-0.26,0.477-0.761,0.772-1.292,0.772c-0.074,0-0.148-0.005-0.225-0.017c-0.609-0.095-1.103-0.561-1.221-1.167
		l-1.077-5.425l-5.128,2.057c-0.577,0.235-1.233,0.079-1.647-0.388c-0.413-0.458-0.491-1.126-0.195-1.674l6.876-12.683
		C112.969,88.604,111.342,84.964,111.342,80.948z M125.896,35.622c2.37,0.311,7.632,5.31,13.248,12.153h-26.353
		C118.394,40.932,123.625,35.933,125.896,35.622z"/>
</g>
<text transform="matrix(1 0 0 1 62.9521 153.2949)"><tspan x="0" y="0" font-family="'MyriadPro-Regular'" font-size="17">12 років досвіду </tspan><tspan x="17.458" y="20.4" font-family="'MyriadPro-Regular'" font-size="17">вихователів</tspan></text>
</svg>
