<?xml version="1.0" encoding="utf-8"?>
<!-- Generator: Adobe Illustrator 15.0.0, SVG Export Plug-In . SVG Version: 6.00 Build 0)  -->
<!DOCTYPE svg PUBLIC "-//W3C//DTD SVG 1.1//EN" "http://www.w3.org/Graphics/SVG/1.1/DTD/svg11.dtd">
<svg version="1.1" id="Слой_1" xmlns="http://www.w3.org/2000/svg" xmlns:xlink="http://www.w3.org/1999/xlink" x="0px" y="0px"
	 width="250px" height="250px" viewBox="0 0 250 250" enable-background="new 0 0 250 250" xml:space="preserve">
<polygon fill="#FFFFFF" stroke="#FDC54E" stroke-width="5" stroke-miterlimit="10" points="234.037,188.131 125.428,250 
	16.824,188.131 16.824,64.397 125.428,2.53 234.037,64.397 "/>
<text transform="matrix(1 0 0 1 47.9409 153.2949)"><tspan x="0" y="0" font-family="'MyriadPro-Regular'" font-size="17">Щоденні розвиваючі</tspan><tspan x="8.101" y="20.4" font-family="'MyriadPro-Regular'" font-size="17">заняття+вивчаємо</tspan><tspan x="37.544" y="40.8" font-family="'MyriadPro-Regular'" font-size="17">англійську</tspan></text>
<g>
	<g>
		<path fill="#010101" d="M149.729,96.394c4.427,0,8.004-3.573,8.004-8.003c0-2.766,0.967-5.287-1.163-6.723
			c-1.275-0.861-6.878-1.275-8.541-1.275c-1.971,0-4.529,1.609-5.924,2.787c-1.739,1.467-0.371,2.757-0.371,5.212
			C141.726,92.821,145.31,96.394,149.729,96.394z M149.909,94.538c-3.229,0-5.848-2.664-5.848-5.959
			c0-0.335,0.051-0.649,0.093-0.967c1.473-0.266,2.468,0.225,2.468,0.225l2.459-1.199c0,0-1.254,1.803-0.123,1.199
			c2.496-0.841,5.294-0.49,6.715-0.217c0.05,0.314,0.093,0.625,0.093,0.959C155.778,91.874,153.151,94.538,149.909,94.538z"/>
		<path fill="#010101" d="M168.012,97.177c-0.466-4.267,1.569-6.853,2.354-7.669c0.731,4.422,4.542,7.813,9.164,7.813
			c4.382,0,8.046-3.047,9.031-7.131c0.76,1.333,2.024,4.059,1.714,6.988c7.768-0.065,3.94-8.942-1.5-9.913
			c-0.037-0.449-0.084-0.91-0.181-1.346c-0.317-2.802-2.829-8.507-10.024-8.336c-6.208,0.145-7.567,4.82-7.894,7.667
			c-0.22,0.702-0.358,1.428-0.407,2.191C162.19,88.847,163.08,97.047,168.012,97.177z M179.535,94.693
			c-3.638,0-6.592-2.925-6.668-6.536c1.326-0.486,2.305-2.786,2.305-2.786s0.787,0.273,0.787,2.864
			c1.376,0.481,3.759-4.024,3.759-4.024v3.546c1.517,0.42,6.289-0.13,6.289-0.13l0.173,0.147c0.007,0.085,0.023,0.155,0.023,0.24
			C186.221,91.687,183.218,94.693,179.535,94.693z"/>
		<path fill="#010101" d="M181.473,97.561h-3.918h-3.289l-9.604,11.579l-9.3-11.432h-10.584l-11.07,12.158l-11.047-12.932h-3.619
			h-3.919h-3.288l-5.617-4.887c0.522-1.48,1.271-2.484,1.738-3.006c0.79,4.349,4.583,7.653,9.144,7.653
			c4.378,0,8.04-3.043,9.027-7.131c0.75,1.313,2.052,4.084,1.738,7.049c7.747-0.069,3.914-8.97-1.514-9.921
			c-0.035-0.437-0.061-0.869-0.152-1.285c-0.285-2.788-2.771-8.563-9.982-8.391c-5.619,0.134-7.241,4.01-7.734,6.856
			c-0.387,0.945-0.592,1.968-0.65,3.034c-2.215,0.412-3.744,1.341-4.679,2.484l-3.696-3.218l1.031-0.412l-9.14-26.309h3.248h2.188
			l-1.024-1.934c-0.024-0.049-2.331-4.448-3.225-8.626c0-0.059,0.013-0.108,0.013-0.171c0-0.814-0.125-1.596-0.308-2.36
			c-0.005-0.238-0.022-0.466-0.035-0.713c-0.129-3.83-0.309-9.081-9.456-9.081c-3.556,0-6.254,0.921-8.03,2.747
			c-2.493,2.57-2.711,6.395-2.623,9.446c0.142,4.907-2.84,8.483-2.872,8.518l-1.841,2.174h5.334l-9.082,26.333l5.05,2.016
			l5.664-15.542l0.57,7.204l-9.159,25.351h10.566v22.063h-1.392v2.576h6.319v-2.576l0,0v-22.063h2.366v22.063v2.576h6.315v-2.576
			h-1.387v-22.063h8.191l-8.074-25.351l0.439-8.868l6.27,17.211l1.37-0.546h-0.009l5.24,5.047c-0.127,2.21,1.307,4.25,3.728,4.312
			c-0.028-0.262-0.008-0.49-0.02-0.739l5.84,5.633l0.373,4.872l-6.668,11.459h7.686v9.975h-1.008v1.164h4.598v-1.164h0.004v-9.975
			h1.724v9.975v1.164h4.602v-1.164h-1.01v-9.975h5.962l-5.875-11.459l0.315-4.006l8.796,9.636l1.998-0.493l3.011,0.742l7.923-6.764
			v13.12h1.592v9.97h-1.011v1.168h4.602v-1.168l0,0v-9.973h1.729v9.969v1.168h4.598v-1.168h-1.001v-9.969h1.926v-12.875l6.34,6.519
			l2.588-0.645l1.444,0.355l7.17-8.216l0.418,3.252l-6.666,11.463h7.692v9.978h-1.01v1.158h4.598v-1.158l0,0v-9.978h1.729v9.978
			v1.158h4.596v-1.158h-1.01v-9.978h5.974l-5.885-11.463l0.319-4.006l5.613,7.522l3.729-0.921l-8.901-12.027h-3.656v-0.009H181.473z
			 M117.104,94.061c-3.6,0-6.529-2.872-6.654-6.446c1.371-0.399,2.385-2.819,2.385-2.819s0.793,0.272,0.793,2.868
			c1.366,0.482,3.737-4.022,3.737-4.022v3.549c1.51,0.413,6.264-0.134,6.264-0.134l0.139,0.118c0,0.07,0.021,0.13,0.021,0.208
			C123.788,91.066,120.79,94.061,117.104,94.061z M84.737,55.718l-0.014,2.748v0.463l-2.667,4.062l-2.69-3.811v-1.03v-1.37v-1.45
			c-2.462-1.189-4.178-3.696-4.178-6.613c0-1.224,0.331-2.368,0.866-3.388l3.889-0.372l9.386,0.865
			c0.377,0.89,0.59,1.871,0.59,2.894C89.918,52.016,87.729,54.777,84.737,55.718z"/>
	</g>
</g>
</svg>
